<?xml version="1.0" encoding="UTF-8" standalone="no"?>
<!-- Created with Inkscape (http://www.inkscape.org/) -->

<svg
   width="81.559517mm"
   height="10.008262mm"
   viewBox="0 0 81.559517 10.008262"
   version="1.1"
   id="svg4118"
   inkscape:version="1.1.2 (b8e25be833, 2022-02-05)"
   sodipodi:docname="accessibility.svg"
   xmlns:inkscape="http://www.inkscape.org/namespaces/inkscape"
   xmlns:sodipodi="http://sodipodi.sourceforge.net/DTD/sodipodi-0.dtd"
   xmlns="http://www.w3.org/2000/svg"
   xmlns:svg="http://www.w3.org/2000/svg">
  <sodipodi:namedview
     id="namedview4120"
     pagecolor="#ffffff"
     bordercolor="#111111"
     borderopacity="1"
     inkscape:pageshadow="0"
     inkscape:pageopacity="0"
     inkscape:pagecheckerboard="1"
     inkscape:document-units="mm"
     showgrid="false"
     inkscape:zoom="3.053844"
     inkscape:cx="137.36786"
     inkscape:cy="25.214124"
     inkscape:window-width="1920"
     inkscape:window-height="1017"
     inkscape:window-x="-8"
     inkscape:window-y="-8"
     inkscape:window-maximized="1"
     inkscape:current-layer="layer1" />
  <defs
     id="defs4115" />
  <g
     inkscape:label="Layer 1"
     inkscape:groupmode="layer"
     id="layer1"
     transform="translate(-94.031211,-89.606134)">
    <path
       class="cls-17"
       d="m 96.555524,98.424763 c 0.5715,0 1.058334,0.02117 1.534584,0 1.222375,-0.06879 2.444752,-0.156104 3.667122,-0.264583 a 0.64293749,0.64293749 0 0 0 0.37836,-0.161396 c 0.19843,-0.177271 0.39158,-0.264584 0.61912,-0.08731 0.22754,0.177271 0.60325,0.351896 0.58738,0.764646 0,0.264583 -0.20638,0.452438 -0.56621,0.489479 -0.44186,0.04498 -0.88371,0.06615 -1.32292,0.09525 q -2.910415,0.179917 -5.820831,0.351896 c -0.545042,0.03175 -0.817563,-0.399521 -0.515938,-0.875771 0.79375,-1.264708 1.608667,-2.534708 2.479146,-3.754437 0.724958,-1.013354 1.545167,-1.957917 2.323042,-2.934229 0.07408,-0.09525 0.153461,-0.185209 0.304271,-0.365125 -0.500063,-0.04498 -0.907521,-0.09525 -1.322917,-0.113771 -1.352021,-0.05556 -2.704042,-0.09525 -4.056063,-0.145521 -0.576791,-0.02381 -0.820208,-0.201083 -0.812271,-0.579438 0.0079,-0.378354 0.264584,-0.529166 0.859896,-0.500062 2.005542,0.08467 4.011084,0.166687 6.016625,0.264583 a 3.1220833,3.1220833 0 0 1 0.62706,0.07408 0.48154166,0.48154166 0 0 1 0.30427,0.79375 3.889375,3.889375 0 0 1 -0.45243,0.529166 42.619083,42.619083 0 0 0 -4.616983,6.040438 c -0.05556,0.0926 -0.113771,0.201083 -0.214313,0.378354 z"
       id="path86"
       style="fill:#081316;stroke-width:0.264583" />
    <path
       class="cls-22"
       d="m 117.7804,96.268409 h -1.60867 a 3.000375,3.000375 0 0 1 -0.37835,0 0.46831249,0.46831249 0 0 1 -0.43656,-0.529167 0.43127083,0.43127083 0 0 1 0.46302,-0.486833 c 0.86518,-0.01852 1.73302,0 2.60085,0 a 0.43656249,0.43656249 0 0 1 0.45508,0.433916 q 0.18257,1.539875 0.3519,3.07975 a 1.0583333,1.0583333 0 0 1 0,0.314855 0.52916666,0.52916666 0 0 1 -0.54769,0.436562 c -0.28046,0.01852 -0.41275,-0.177271 -0.45773,-0.428625 -0.045,-0.251354 -0.0609,-0.447146 -0.10054,-0.735542 -0.23812,0.121709 -0.41804,0.219605 -0.6006,0.309563 a 4.6143333,4.6143333 0 0 1 -3.74386,0.264583 4.0692916,4.0692916 0 0 1 -2.61673,-4.016375 3.8311666,3.8311666 0 0 1 3.25702,-3.537479 4.6698958,4.6698958 0 0 1 1.38113,0.05556 c 0.41804,0.06085 0.55827,0.264583 0.50535,0.584729 -0.0529,0.320146 -0.3175,0.470958 -0.72231,0.433916 a 4.2650833,4.2650833 0 0 0 -0.87577,-0.05821 2.6458333,2.6458333 0 0 0 -2.3151,1.80975 c -0.39952,1.087438 -0.13759,2.087563 0.60854,2.950104 0.84931,0.978959 2.16164,1.277938 3.47398,0.809625 a 4.8577499,4.8577499 0 0 0 0.96308,-0.473604 c 0.56885,-0.370417 0.57679,-0.431271 0.34396,-1.217083 z"
       id="path88"
       style="fill:#070f12;stroke-width:0.264583" />
    <path
       class="cls-18"
       d="m 137.21669,94.937555 -1.18798,0.280458 a 2.3256875,2.3256875 0 0 1 -0.49477,0.0926 0.52916666,0.52916666 0 0 1 -0.52917,-0.460375 0.43391666,0.43391666 0 0 1 0.32809,-0.529167 c 0.36248,-0.11377 0.73554,-0.195791 1.10331,-0.288395 a 2.6458333,2.6458333 0 0 0 0.98954,-0.370417 0.65881249,0.65881249 0 0 1 0.97896,0.600604 c -0.1614,1.251479 0.10583,2.481792 0.12435,3.722688 0,0.550333 -0.0767,0.754062 -0.38629,0.81227 -0.30956,0.05821 -0.55298,-0.153458 -0.67469,-0.658812 0,-0.02117 0,-0.03969 -0.0317,-0.0979 a 1.3229166,1.3229166 0 0 0 -0.26458,0.127 c -1.56898,1.235604 -4.17248,0.296333 -4.46087,-2.079625 a 5.1276249,5.1276249 0 0 1 1.70127,-4.513792 2.841625,2.841625 0 0 1 3.24114,-0.49477 c 0.36248,0.179916 0.47625,0.396875 0.36777,0.693208 -0.10848,0.296333 -0.37041,0.391583 -0.74083,0.28575 -0.1614,-0.04498 -0.31221,-0.124354 -0.4736,-0.171979 a 1.6774583,1.6774583 0 0 0 -1.44727,0.264583 c -1.13771,0.743479 -1.89442,2.780771 -1.54517,4.114271 a 1.7594791,1.7594791 0 0 0 1.41287,1.383771 c 0.74084,0.145521 1.26207,-0.264584 1.74096,-0.809625 0.4789,-0.545042 0.33867,-1.209146 0.24871,-1.902354 z"
       id="path90"
       style="fill:#081012;stroke-width:0.264583" />
    <path
       class="cls-16"
       d="m 159.9444,94.373992 1.30439,-1.635125 c 0.1323,-0.164042 0.26459,-0.333375 0.39159,-0.497417 a 0.43920833,0.43920833 0 0 1 0.60854,-0.153458 0.56091666,0.56091666 0 0 1 0.24342,0.711729 1.9817291,1.9817291 0 0 1 -0.2884,0.415396 l -1.39171,1.775354 1.82034,1.955271 a 3.6618333,3.6618333 0 0 1 0.26458,0.277813 0.50270833,0.50270833 0 0 1 -0.0238,0.735541 0.45772916,0.45772916 0 0 1 -0.72496,-0.01588 c -0.43656,-0.428625 -0.84402,-0.886354 -1.26471,-1.322916 l -0.68263,-0.714375 -0.12435,0.04762 c 0.0317,0.492125 0.0582,0.98425 0.0926,1.476375 0.0238,0.357187 0.0556,0.714375 0.0794,1.074208 0.0212,0.283104 -0.0661,0.500062 -0.37835,0.558271 a 0.52916666,0.52916666 0 0 1 -0.65353,-0.447146 9.3741874,9.3741874 0 0 1 -0.10583,-0.944563 q -0.2196,-2.870729 -0.43127,-5.744104 c -0.0423,-0.568854 -0.10054,-1.135062 -0.12435,-1.703916 -0.0185,-0.420688 0.14023,-0.611188 0.45773,-0.61648 a 0.56356249,0.56356249 0 0 1 0.5715,0.558271 c 0.10318,1.17475 0.1905,2.354792 0.28839,3.532188 0.008,0.169333 0.0344,0.34925 0.0714,0.677333 z"
       id="path92"
       style="fill:#081013;stroke-width:0.264583" />
    <path
       class="cls-19"
       d="m 164.46877,95.509055 c -0.33073,0.894291 0.3863,2.188104 1.66952,2.413 a 2.3256875,2.3256875 0 0 0 1.85209,-0.407459 1.2991042,1.2991042 0 0 1 0.26458,-0.182562 0.54768749,0.54768749 0 0 1 0.67998,0.174625 0.45772916,0.45772916 0 0 1 -0.10054,0.674687 3.413125,3.413125 0 0 1 -3.20411,0.711729 2.9845,2.9845 0 0 1 -2.21191,-2.230437 3.2199791,3.2199791 0 0 1 0.37306,-2.667 2.6643541,2.6643541 0 0 1 2.39448,-1.293813 1.2620625,1.2620625 0 0 1 1.19327,1.693334 1.8520833,1.8520833 0 0 1 -2.0029,1.304396 c -0.30162,-0.05556 -0.60854,-0.129646 -0.90752,-0.1905 z m 0.26459,-0.992188 a 10.054167,10.054167 0 0 0 1.05833,0.108479 0.48154166,0.48154166 0 0 0 0.52917,-0.502708 0.50535416,0.50535416 0 0 0 -0.67998,-0.365125 1.49225,1.49225 0 0 0 -0.90752,0.759354 z"
       id="path94"
       style="fill:#081114;stroke-width:0.264583" />
    <path
       class="cls-23"
       d="m 126.8609,93.217763 c 1.85208,-0.682625 3.27554,0.624417 3.6195,2.264833 a 8.0803749,8.0803749 0 0 1 0.0317,2.775479 0.58472916,0.58472916 0 0 1 -0.47096,0.529167 0.42597916,0.42597916 0 0 1 -0.56621,-0.415396 c 0,-0.357187 0.0503,-0.717021 0.0847,-1.058333 a 3.7041666,3.7041666 0 0 0 -0.39688,-2.333625 c -0.30162,-0.513292 -0.70114,-0.907521 -1.35995,-0.881063 a 0.91810416,0.91810416 0 0 0 -0.98161,0.994834 c 0,1.164166 0,2.328333 0,3.489854 0,0.148167 0,0.298979 0,0.4445 a 0.50535416,0.50535416 0 0 1 -0.49742,0.484187 c -0.28045,0.0344 -0.49477,-0.169333 -0.52916,-0.497416 a 3.0718125,3.0718125 0 0 1 -0.0185,-0.441854 v -5.207 q 0,-0.22225 0.0159,-0.4445 a 0.44979166,0.44979166 0 0 1 0.4789,-0.47625 0.48418749,0.48418749 0 0 1 0.55298,0.407458 c 0.008,0.116417 0.0185,0.238125 0.037,0.365125 z"
       id="path96"
       style="fill:#070e11;stroke-width:0.264583" />
    <path
       class="cls-18"
       d="m 123.40015,98.260721 a 7.7708124,7.7708124 0 0 1 -1.32292,0.264584 1.4022916,1.4022916 0 0 1 -1.48696,-1.259417 1.5028333,1.5028333 0 0 1 1.41023,-1.508125 9.8795415,9.8795415 0 0 1 1.15888,0.05556 c 0.0291,-0.62177 -0.0529,-1.2065 -0.59796,-1.624541 -0.50006,-0.383646 -0.8546,-0.293688 -1.11919,0.291041 -0.12171,0.264584 -0.26458,0.423334 -0.58208,0.357188 a 0.55033333,0.55033333 0 0 1 -0.42333,-0.674688 c 0.0979,-0.767291 0.94456,-1.381125 1.78064,-1.264708 a 2.0346458,2.0346458 0 0 1 1.79917,1.637771 11.258021,11.258021 0 0 1 0.24077,2.005542 4.6963541,4.6963541 0 0 0 0.37042,1.852083 0.50006249,0.50006249 0 0 1 -0.0688,0.590021 0.47889583,0.47889583 0 0 1 -0.79375,-0.0291 5.7282291,5.7282291 0 0 1 -0.36512,-0.693209 z m -0.3519,-1.248833 a 1.2276667,1.2276667 0 0 0 -0.98954,-0.203729 c -0.19844,0.05821 -0.42069,0.142875 -0.40217,0.415396 0.0132,0.198437 0.2884,0.365125 0.54505,0.312208 a 1.3414375,1.3414375 0 0 0 0.84666,-0.523875 z"
       id="path98"
       style="fill:#081012;stroke-width:0.264583" />
    <path
       class="cls-18"
       d="m 108.95919,98.078159 a 2.3627291,2.3627291 0 0 1 -2.03464,0.873125 2.0584583,2.0584583 0 0 1 -1.69069,-0.955146 3.7253333,3.7253333 0 0 1 -0.60061,-1.783292 17.93875,17.93875 0 0 1 -0.0159,-1.960562 0.85989582,0.85989582 0 0 1 0.12171,-0.415396 0.52916666,0.52916666 0 0 1 0.66675,-0.219604 c 0.26458,0.07937 0.29898,0.288396 0.28046,0.552979 a 17.295812,17.295812 0 0 0 -0.0714,1.957917 c 0.037,0.915458 0.49477,1.497541 1.24883,1.711854 0.67204,0.187854 1.20915,-0.06085 1.3679,-0.738188 a 7.7761041,7.7761041 0 0 0 0.127,-1.629833 5.4318958,5.4318958 0 0 0 -0.13229,-0.936625 c -0.0714,-0.425979 0.082,-0.701146 0.43127,-0.769938 0.30162,-0.05821 0.52916,0.132292 0.61118,0.5715 0.2249,1.058334 0.43921,2.116667 0.65882,3.159125 0.0741,0.34925 0.16139,0.6985 0.22489,1.058334 a 1.8520833,1.8520833 0 0 1 0.037,0.563562 0.48683333,0.48683333 0 0 1 -0.49741,0.407458 0.42597916,0.42597916 0 0 1 -0.48154,-0.325437 c -0.09,-0.330729 -0.14817,-0.661458 -0.25136,-1.121833 z"
       id="path100"
       style="fill:#081012;stroke-width:0.264583" />
    <path
       class="cls-19"
       d="m 154.72682,93.728409 c 1.50283,-0.463021 2.62202,0.605896 2.80987,1.886479 a 5.6250416,5.6250416 0 0 1 -0.18256,2.259542 c -0.10319,0.386291 -0.30692,0.508 -0.64294,0.423333 -0.33602,-0.08467 -0.4445,-0.320146 -0.38365,-0.687917 a 9.4456249,9.4456249 0 0 0 0.20373,-1.362604 2.1166666,2.1166666 0 0 0 -0.26458,-1.018646 1.2117917,1.2117917 0 0 0 -0.68262,-0.492125 c -0.52917,-0.145521 -0.74613,0.05556 -0.70644,0.605896 0.0556,0.759354 0.12964,1.516063 0.20902,2.272771 0.0503,0.489479 -0.0767,0.738187 -0.42069,0.767292 -0.34396,0.0291 -0.59796,-0.214313 -0.64294,-0.640292 -0.0635,-0.590021 -0.0926,-1.180042 -0.15875,-1.767417 a 8.4904791,8.4904791 0 0 0 -0.17727,-0.85725 0.76729166,0.76729166 0 0 1 -0.0556,-0.243416 c 0.17727,-1.18798 -0.1561,-2.346855 -0.20373,-3.52425 -0.0185,-0.465667 0.0688,-0.67998 0.39423,-0.724959 0.32544,-0.04498 0.61648,0.187854 0.6641,0.605896 0.0582,0.502708 0.09,1.010708 0.13759,1.516063 0.0318,0.298979 0.0556,0.611187 0.10319,0.981604 z"
       id="path102"
       style="fill:#081114;stroke-width:0.264583" />
    <path
       class="cls-18"
       d="m 140.56367,93.537909 c 0.10583,-0.92075 0.19315,-1.852084 0.32015,-2.764896 0.0714,-0.529167 0.21695,-0.637646 0.55297,-0.597958 0.37571,0.04762 0.56092,0.330729 0.47361,0.81227 a 13.041312,13.041312 0 0 0 -0.19844,3.09298 10.302875,10.302875 0 0 0 0.62442,3.22527 3.7544375,3.7544375 0 0 0 0.28046,0.566209 c 0.33073,0.529166 0.52916,0.568854 1.02393,0.145521 0.30692,-0.264584 0.59796,-0.264584 0.83873,-0.02117 0.1905,0.201083 0.16934,0.436562 -0.0714,0.732896 a 1.4657916,1.4657916 0 0 1 -1.88384,0.383646 2.38125,2.38125 0 0 1 -1.13506,-1.230313 9.1334166,9.1334166 0 0 1 -0.7329,-3.323167 c -0.0185,-0.33602 0,-0.677333 0,-1.013354 z"
       id="path104"
       style="fill:#081012;stroke-width:0.264583" />
    <path
       class="cls-16"
       d="m 174.59173,93.736346 c 0.18786,0 0.33338,0 0.4789,0 a 0.48154166,0.48154166 0 0 1 0.51594,0.452438 0.52916666,0.52916666 0 0 1 -0.4498,0.590021 5.6038749,5.6038749 0 0 1 -0.6006,0.08202 2.8469166,2.8469166 0 0 0 -0.082,0.41275 c -0.0529,0.886355 -0.0952,1.772709 -0.15081,2.645834 a 2.0584583,2.0584583 0 0 1 -0.0979,0.555625 0.48683333,0.48683333 0 0 1 -0.56621,0.306916 0.47360416,0.47360416 0 0 1 -0.43391,-0.470958 3.5798125,3.5798125 0 0 1 0.0317,-0.441854 c 0.0609,-0.986896 0.11906,-1.973792 0.17991,-3.005667 -0.22489,0.02117 -0.38894,0.05027 -0.55298,0.05027 a 0.51064583,0.51064583 0 0 1 -0.54504,-0.433917 0.55827083,0.55827083 0 0 1 0.43656,-0.611187 6.3182499,6.3182499 0 0 1 0.72761,-0.0635 c 0.0318,-0.529167 0.0609,-1.029229 0.0926,-1.531938 0.0344,-0.59002 0.0741,-1.180041 0.11377,-1.770062 a 0.84666666,0.84666666 0 0 1 0.0556,-0.309563 0.54768749,0.54768749 0 0 1 0.64293,-0.28575 0.39422916,0.39422916 0 0 1 0.33867,0.45773 c -0.0423,0.886354 -0.0926,1.772708 -0.13494,2.645833 -0.0106,0.235479 0,0.447146 0,0.724959 z"
       id="path106"
       style="fill:#081013;stroke-width:0.264583" />
    <path
       class="cls-20"
       d="m 150.64694,92.93995 a 5.3207708,5.3207708 0 0 1 0.68263,0.111125 0.46566666,0.46566666 0 0 1 0.39422,0.605896 0.55297916,0.55297916 0 0 1 -0.61912,0.420688 3.5189583,3.5189583 0 0 0 -0.92869,0 1.7436041,1.7436041 0 0 0 -1.32291,2.280708 c 0.3175,0.98425 1.32291,1.452563 2.35743,1.0795 a 2.8839583,2.8839583 0 0 0 0.56092,-0.288396 0.45508333,0.45508333 0 0 1 0.67469,0.06085 0.52916666,0.52916666 0 0 1 -0.0291,0.748771 1.9870208,1.9870208 0 0 1 -0.46566,0.325438 2.8945416,2.8945416 0 0 1 -3.3073,-0.383646 2.8522083,2.8522083 0 0 1 -0.76993,-3.069167 2.9818541,2.9818541 0 0 1 2.77283,-1.891771 z"
       id="path108"
       style="fill:#081215;stroke-width:0.264583" />
    <path
       class="cls-18"
       d="m 146.53532,96.329263 c 0,0.79375 0,1.603375 0,2.405062 0,0.423334 -0.10848,0.550334 -0.41805,0.592667 a 0.47889583,0.47889583 0 0 1 -0.61383,-0.463021 c -0.037,-0.463021 -0.0265,-0.928687 -0.0423,-1.391708 -0.0344,-1.201208 -0.0741,-2.402417 -0.11113,-3.603625 a 2.0769791,2.0769791 0 0 1 0,-0.314854 0.47360416,0.47360416 0 0 1 0.4789,-0.423334 0.48947916,0.48947916 0 0 1 0.52916,0.359834 1.0212917,1.0212917 0 0 1 0.0397,0.312208 c 0,0.841375 0,1.685396 0,2.526771 z"
       id="path110"
       style="fill:#081012;stroke-width:0.264583" />
    <path
       class="cls-22"
       d="m 169.76044,95.800096 v -1.524 a 3.0030208,3.0030208 0 0 1 0,-0.378354 0.50535416,0.50535416 0 0 1 0.55563,-0.484187 0.47360416,0.47360416 0 0 1 0.47889,0.492125 c 0.0132,0.33602 0,0.674687 0,1.013354 0,0.889 0,1.778 0,2.664354 0,0.436562 -0.19844,0.653521 -0.52917,0.650875 -0.33072,-0.0026 -0.51329,-0.232833 -0.52916,-0.658813 0.0238,-0.59002 0.0238,-1.182687 0.0238,-1.775354 z"
       id="path112"
       style="fill:#070f12;stroke-width:0.264583" />
    <path
       class="cls-24"
       d="m 146.2575,91.400075 a 0.61647916,0.61647916 0 0 1 -0.62177,0.653521 0.79374999,0.79374999 0 0 1 -0.76994,-0.764646 0.83608332,0.83608332 0 0 1 0.80963,-0.732895 c 0.3466,0.01323 0.58737,0.362479 0.58208,0.84402 z"
       id="path114"
       style="fill:#101b1f;stroke-width:0.264583" />
    <path
       class="cls-24"
       d="m 170.07265,90.807409 c 0.30427,0 0.84667,0.402166 0.889,0.695854 a 0.65616666,0.65616666 0 0 1 -0.13494,0.441854 0.72760416,0.72760416 0 0 1 -0.86254,0.148167 0.71702082,0.71702082 0 0 1 -0.46567,-0.682625 0.55827083,0.55827083 0 0 1 0.57415,-0.60325 z"
       id="path116"
       style="fill:#101b1f;stroke-width:0.264583" />
    <path
       class="cls-24"
       d="m 124.00604,91.386846 a 0.60060416,0.60060416 0 0 1 -0.5715,0.687917 c -0.41804,0 -0.81491,-0.293688 -0.83608,-0.611188 -0.0291,-0.373062 0.26458,-0.616479 0.77523,-0.632354 a 0.58208333,0.58208333 0 0 1 0.63235,0.555625 z"
       id="path118"
       style="fill:#101b1f;stroke-width:0.264583" />
    <path
       class="cls-24"
       d="m 120.99509,91.114325 c 0.52916,0 0.79375,0.169334 0.83873,0.478896 0.0318,0.264584 -0.17198,0.486834 -0.52917,0.608542 -0.4154,0.137583 -0.66411,0.08202 -0.83608,-0.1905 a 0.50535416,0.50535416 0 0 1 0.09,-0.687917 1.36525,1.36525 0 0 1 0.43657,-0.209021 z"
       id="path120"
       style="fill:#101b1f;stroke-width:0.264583" />
  </g>
</svg>
