<?xml version="1.0" encoding="UTF-8" standalone="no"?>
<!-- Created with Inkscape (http://www.inkscape.org/) -->

<svg
   width="32.062725mm"
   height="10.56443mm"
   viewBox="0 0 32.062725 10.56443"
   version="1.1"
   id="svg3655"
   inkscape:version="1.1.2 (b8e25be833, 2022-02-05)"
   sodipodi:docname="costs.svg"
   xmlns:inkscape="http://www.inkscape.org/namespaces/inkscape"
   xmlns:sodipodi="http://sodipodi.sourceforge.net/DTD/sodipodi-0.dtd"
   xmlns="http://www.w3.org/2000/svg"
   xmlns:svg="http://www.w3.org/2000/svg">
  <sodipodi:namedview
     id="namedview3657"
     pagecolor="#ffffff"
     bordercolor="#111111"
     borderopacity="1"
     inkscape:pageshadow="0"
     inkscape:pageopacity="0"
     inkscape:pagecheckerboard="1"
     inkscape:document-units="mm"
     showgrid="false"
     inkscape:zoom="1.526922"
     inkscape:cx="-69.093248"
     inkscape:cy="92.342635"
     inkscape:window-width="1920"
     inkscape:window-height="1017"
     inkscape:window-x="-8"
     inkscape:window-y="-8"
     inkscape:window-maximized="1"
     inkscape:current-layer="layer1" />
  <defs
     id="defs3652" />
  <g
     inkscape:label="Layer 1"
     inkscape:groupmode="layer"
     id="layer1"
     transform="translate(-69.568419,-62.989666)">
    <path
       class="cls-22"
       d="m 72.345659,67.312064 3.053292,5.042958 c 0.06615,0.10848 0.137583,0.211667 0.193146,0.325438 0.169333,0.343958 0.108479,0.595312 -0.179917,0.762 -0.288396,0.166687 -0.529166,0.105833 -0.759354,-0.209021 -0.124354,-0.169333 -0.224896,-0.357187 -0.336021,-0.529167 L 71.795326,68.52121 c -0.07673,-0.121708 -0.15875,-0.243417 -0.248708,-0.378354 a 1.0186458,1.0186458 0 0 0 -0.658813,1.148291 c 0.103188,1.15623 0.121709,2.320396 0.164042,3.481917 0,0.381 -0.179917,0.60325 -0.484188,0.621771 a 0.58737499,0.58737499 0 0 1 -0.59002,-0.529167 1.4578541,1.4578541 0 0 1 -0.01852,-0.187854 c -0.03175,-0.547687 -0.06615,-1.095375 -0.0926,-1.645708 q -0.148167,-3.288771 -0.291042,-6.585479 c 0,-0.1905 -0.01588,-0.381 0,-0.5715 0,-0.4445 0.166687,-0.658813 0.489479,-0.672042 0.322792,-0.01323 0.5715,0.235479 0.597958,0.672042 0.0344,0.613833 0.05556,1.22502 0.08467,1.836208 0.02117,0.460375 0.04763,0.92075 0.07673,1.516062 0.399521,-0.357187 0.709084,-0.627062 1.013354,-0.90752 0.762,-0.703792 1.521355,-1.404938 2.278063,-2.116667 a 0.74877082,0.74877082 0 0 1 0.645583,-0.296333 0.51064583,0.51064583 0 0 1 0.351896,0.814916 2.0690416,2.0690416 0 0 1 -0.314854,0.312209 z"
       id="path74"
       style="fill:#070f12;stroke-width:0.264583" />
    <path
       class="cls-23"
       d="m 97.459909,66.960168 c 0.201083,-0.150812 0.346604,-0.264583 0.492125,-0.362479 0.978958,-0.709083 2.039938,-0.510646 2.627316,0.547688 a 4.1751249,4.1751249 0 0 1 0.46566,1.36525 c 0.21696,1.418166 0.37042,2.846916 0.55034,4.270375 l 0.0159,0.127 a 0.43920833,0.43920833 0 0 1 -0.36248,0.566208 0.57414583,0.57414583 0 0 1 -0.6641,-0.34925 3.0109583,3.0109583 0 0 1 -0.11642,-0.619125 c -0.17462,-1.322917 -0.33867,-2.645833 -0.529165,-3.96875 A 3.0374166,3.0374166 0 0 0 99.735326,67.809481 C 99.526305,67.31471 99.206159,67.190356 98.714034,67.425835 a 2.0108333,2.0108333 0 0 0 -1.193271,1.804458 c -0.03704,0.928688 0,1.852084 0.02117,2.791354 a 4.1010416,4.1010416 0 0 1 0,0.441855 0.46831249,0.46831249 0 0 1 -0.508,0.457729 c -0.336021,0 -0.529167,-0.124354 -0.552979,-0.468313 -0.04763,-0.632354 -0.07408,-1.267354 -0.08467,-1.899708 -0.02381,-1.375833 -0.03175,-2.749021 -0.04498,-4.124854 a 2.5743958,2.5743958 0 0 1 0,-0.378354 0.47624999,0.47624999 0 0 1 0.494771,-0.470959 0.50006249,0.50006249 0 0 1 0.550333,0.423334 c 0.0635,0.28575 0.04762,0.59002 0.0635,0.957791 z"
       id="path76"
       style="fill:#070e11;stroke-width:0.264583" />
    <path
       class="cls-18"
       d="m 92.226451,69.198543 a 2.7860625,2.7860625 0 0 0 0.687916,1.521354 c 0.605896,0.61648 1.246188,0.587375 1.783292,-0.07937 0.07937,-0.100541 0.137583,-0.216958 0.224896,-0.306916 a 0.52916666,0.52916666 0 0 1 0.740833,-0.06615 0.48683333,0.48683333 0 0 1 0.174625,0.669396 c -0.590021,1.124479 -1.886479,1.778 -3.082396,1.124479 a 2.38125,2.38125 0 0 1 -1.058333,-1.058333 c -0.251354,-0.529167 -0.428625,-1.095375 -0.632354,-1.645709 -0.07408,-0.193146 -0.134938,-0.391583 -0.198438,-0.590021 -0.03175,-0.0979 -0.100541,-0.214312 -0.07408,-0.296333 0.224896,-0.6985 0.198438,-1.465792 0.619125,-2.116667 a 1.8123958,1.8123958 0 0 1 2.590271,-0.576791 c 0.616479,0.404812 0.79375,1.005416 0.759354,1.701271 a 1.4313958,1.4313958 0 0 1 -1.000125,1.338791 14.356291,14.356291 0 0 1 -1.534583,0.381 z m -0.116417,-1.227666 a 1.3229166,1.3229166 0 0 0 1.561042,-0.627063 c 0.0344,-0.07144 0.07408,-0.198437 0.04233,-0.232833 a 2.6220208,2.6220208 0 0 0 -0.574146,-0.529167 0.47360416,0.47360416 0 0 0 -0.611187,0.185208 1.9261666,1.9261666 0 0 0 -0.418042,1.195917 z"
       id="path78"
       style="fill:#081012;stroke-width:0.264583" />
    <path
       class="cls-23"
       d="m 78.610993,67.007793 a 2.6458333,2.6458333 0 0 1 2.196041,1.262063 4.1116249,4.1116249 0 0 1 0.457729,3.704166 2.1616458,2.1616458 0 0 1 -1.762125,1.553105 c -0.851958,0.137583 -1.513416,-0.264584 -2.045229,-0.90223 a 3.9343541,3.9343541 0 0 1 -0.836083,-1.89177 7.5247499,7.5247499 0 0 1 0.06879,-2.836334 0.62177083,0.62177083 0 0 1 0.59002,-0.547687 13.255625,13.255625 0 0 0 1.330855,-0.341313 z m -1.016,2.407709 a 4.5376041,4.5376041 0 0 0 0.383645,1.944687 1.8520833,1.8520833 0 0 0 0.881063,0.9525 0.79374999,0.79374999 0 0 0 1.058333,-0.214312 1.7383125,1.7383125 0 0 0 0.330729,-0.600605 3.1247291,3.1247291 0 0 0 -0.30427,-2.553229 1.6218958,1.6218958 0 0 0 -1.09273,-0.79375 0.96043749,0.96043749 0 0 0 -1.254125,0.926042 c 0.01852,0.121708 0,0.256646 -0.0026,0.338667 z"
       id="path80"
       style="fill:#070e11;stroke-width:0.264583" />
    <path
       class="cls-22"
       d="m 88.768347,66.708814 c 0.891645,0.0291 1.082145,0.129646 1.0795,0.529167 -0.0026,0.399521 -0.232834,0.529166 -1.0795,0.640291 0,0.1905 0,0.39423 0,0.595313 q 0.05556,2.026708 0.11377,4.056062 c 0,0.127 0,0.264584 0,0.381 -0.02381,0.365125 -0.169333,0.529167 -0.46302,0.576792 a 0.58472916,0.58472916 0 0 1 -0.637646,-0.489479 2.9104166,2.9104166 0 0 1 -0.01588,-0.505354 c -0.03175,-1.322917 -0.06085,-2.622021 -0.09525,-3.931709 0,-0.187854 -0.0344,-0.373062 -0.05556,-0.584729 -0.341312,0 -0.650875,0 -0.960437,0 -0.357188,0 -0.529167,-0.166687 -0.566208,-0.460375 a 0.52916666,0.52916666 0 0 1 0.4445,-0.605896 c 0.330729,-0.06085 0.672041,-0.06615 1.058333,-0.09789 0,-0.153459 0.03704,-0.312209 0.0344,-0.473605 -0.02117,-0.867833 -0.04763,-1.73302 -0.07144,-2.600854 0,-0.460375 0.07937,-0.637646 0.359834,-0.717021 0.420687,-0.119062 0.709083,0.111125 0.727604,0.608542 0.0344,0.886354 0.05292,1.775354 0.08202,2.661708 0.0053,0.127 0.02646,0.261938 0.04498,0.418042 z"
       id="path82"
       style="fill:#070f12;stroke-width:0.264583" />
    <path
       class="cls-20"
       d="m 83.746555,67.211522 c -0.497417,0.396875 -0.595312,0.672042 -0.320146,1.103313 a 8.7471249,8.7471249 0 0 0 0.79375,0.968375 c 0.333375,0.381 0.701146,0.732896 1.002771,1.137708 a 2.0452291,2.0452291 0 0 1 0.383646,1.500188 1.5875,1.5875 0 0 1 -1.209146,1.386416 1.7806458,1.7806458 0 0 1 -1.897062,-0.84402 0.55562499,0.55562499 0 0 1 0.103187,-0.740834 c 0.264583,-0.211666 0.484188,-0.182562 0.777875,0.08731 a 1.6483541,1.6483541 0 0 0 0.439208,0.346604 c 0.439209,0.182562 0.809625,-0.111125 0.66675,-0.558271 a 3.7041666,3.7041666 0 0 0 -0.600604,-1.092729 c -0.264583,-0.346604 -0.635,-0.619125 -0.936625,-0.944563 a 2.5188333,2.5188333 0 0 1 -0.79375,-1.939395 1.4843125,1.4843125 0 0 1 1.608667,-1.431396 1.222375,1.222375 0 0 1 1.161521,0.98425 0.59531249,0.59531249 0 0 1 -0.386292,0.762 c -0.309562,0.100541 -0.478896,0 -0.656167,-0.402167 -0.01852,-0.09525 -0.06879,-0.187854 -0.137583,-0.322792 z"
       id="path84"
       style="fill:#081215;stroke-width:0.264583" />
  </g>
</svg>
