<?xml version="1.0" encoding="UTF-8" standalone="no"?>
<!-- Created with Inkscape (http://www.inkscape.org/) -->

<svg
   width="64.632317mm"
   height="10.721543mm"
   viewBox="0 0 64.632317 10.721543"
   version="1.1"
   id="svg2119"
   inkscape:version="1.1.2 (b8e25be833, 2022-02-05)"
   sodipodi:docname="pearl-index.svg"
   xmlns:inkscape="http://www.inkscape.org/namespaces/inkscape"
   xmlns:sodipodi="http://sodipodi.sourceforge.net/DTD/sodipodi-0.dtd"
   xmlns="http://www.w3.org/2000/svg"
   xmlns:svg="http://www.w3.org/2000/svg">
  <sodipodi:namedview
     id="namedview2121"
     pagecolor="#ffffff"
     bordercolor="#111111"
     borderopacity="1"
     inkscape:pageshadow="0"
     inkscape:pageopacity="0"
     inkscape:pagecheckerboard="1"
     inkscape:document-units="mm"
     showgrid="false"
     inkscape:zoom="3.053844"
     inkscape:cx="75.478643"
     inkscape:cy="77.607108"
     inkscape:window-width="1920"
     inkscape:window-height="1017"
     inkscape:window-x="-8"
     inkscape:window-y="-8"
     inkscape:window-maximized="1"
     inkscape:current-layer="layer1" />
  <defs
     id="defs2116" />
  <g
     inkscape:label="Layer 1"
     inkscape:groupmode="layer"
     id="layer1"
     transform="translate(-0.2169564,-0.18415162)">
    <path
       class="cls-18"
       d="m 1.9060567,6.3970923 c 0.03704,0.690563 0.07937,1.3626036 0.111125,2.0319996 0.02646,0.611188 0.05292,1.222375 0.05556,1.8335631 0,0.449791 -0.169333,0.648229 -0.508,0.642937 -0.338666,-0.0053 -0.513291,-0.203729 -0.529166,-0.640291 -0.06879,-1.1588751 -0.08202,-2.3203961 -0.195792,-3.4739797 -0.164042,-1.656291 -0.383646,-3.307291 -0.60325,-4.958291 -0.0979,-0.740833 0.166688,-1.22237498 0.899583,-1.41816698 a 5.2122916,5.2122916 0 0 1 3.471334,0.142875 3.048,3.048 0 0 1 0.949854,0.60589598 c 0.918104,0.92075 1.30175,2.357438 0.02117,3.579812 -0.915458,0.873125 -2.061104,1.285875 -3.267604,1.55575 z m -0.616479,-4.900083 c 0.174625,1.285875 0.343958,2.526771 0.529166,3.854979 a 17.102666,17.102666 0 0 0 1.672167,-0.529167 4.7624999,4.7624999 0 0 0 1.280583,-0.78052 1.4605,1.4605 0 0 0 -0.264583,-2.407709 c -1.026583,-0.55827 -2.098146,-0.47625 -3.217333,-0.14552 z"
       id="path122"
       style="fill:#081012;stroke-width:0.264583" />
    <path
       class="cls-18"
       d="m 50.827515,8.9529669 c -0.452438,0.15875 -0.820209,0.320146 -1.203855,0.41275 a 1.87325,1.87325 0 0 1 -2.198687,-1.058333 3.254375,3.254375 0 0 1 0.772583,-3.6565416 1.8520833,1.8520833 0 0 1 1.894417,-0.383645 c -0.0635,-0.478896 -0.119063,-0.910167 -0.179917,-1.341438 q -0.140229,-0.936625 -0.28575,-1.87325 a 0.60324999,0.60324999 0 0 1 0.291042,-0.65087498 0.43391666,0.43391666 0 0 1 0.6985,0.246063 10.535708,10.535708 0 0 1 0.201083,1.11918698 q 0.579438,3.780896 1.156229,7.5670826 a 3.6300833,3.6300833 0 0 1 0.0635,0.629709 0.52916666,0.52916666 0 0 1 -0.529166,0.5291661 c -0.314854,0 -0.455084,-0.177271 -0.505354,-0.457729 C 50.94658,9.6832169 50.891015,9.3313209 50.827515,8.9529669 Z M 50.63966,7.8046759 C 50.507369,6.9394883 50.390952,6.1801343 50.27189,5.3890303 c -0.264584,-0.04233 -0.478896,-0.0926 -0.706438,-0.116417 a 0.92604165,0.92604165 0 0 0 -0.92075,0.428625 2.2092708,2.2092708 0 0 0 -0.320146,1.9764376 0.83343749,0.83343749 0 0 0 1.029229,0.608541 12.353396,12.353396 0 0 0 1.285875,-0.481541 z"
       id="path124"
       style="fill:#081012;stroke-width:0.264583" />
    <path
       class="cls-23"
       d="m 15.196078,6.1854263 a 7.4877082,7.4877082 0 0 0 -0.05556,-0.87048 c -0.0926,-0.529166 -0.362479,-0.814916 -0.79375,-0.859895 a 1.222375,1.222375 0 0 0 -1.214437,0.529166 1.4975416,1.4975416 0 0 0 -0.121709,0.291042 c -0.105833,0.264583 -0.264583,0.425979 -0.582083,0.346604 a 0.55033333,0.55033333 0 0 1 -0.418042,-0.677333 1.7594791,1.7594791 0 0 1 0.325438,-0.674688 2.2807083,2.2807083 0 0 1 2.325687,-0.79375 c 0.926042,0.201084 1.391709,0.87048 1.508125,1.743604 0.121709,0.939271 0.137584,1.891771 0.182563,2.8389796 0.02646,0.529166 0.02117,1.058333 0.02646,1.5875 0,0.4286251 -0.166687,0.6508751 -0.505354,0.6561661 -0.338667,0.0053 -0.529167,-0.195791 -0.568854,-0.6138331 -0.01323,-0.166688 0,-0.333375 0,-0.566208 a 4.5508333,4.5508333 0 0 1 -0.619125,0.15875 2.54,2.54 0 0 1 -0.867834,0.03969 C 12.682541,9.0561579 12.320062,7.8311369 13.095291,6.9394913 a 2.2939375,2.2939375 0 0 1 1.497542,-0.735542 5.5721249,5.5721249 0 0 1 0.60325,-0.01852 z m 0,1.0953746 c -0.613834,-0.1296456 -1.127125,0.0291 -1.357313,0.410104 -0.142875,0.235479 -0.108479,0.439208 0.111125,0.529166 0.433917,0.174625 0.775229,-0.07937 1.113896,-0.28575 0.291042,-0.166687 0.240771,-0.41275 0.145521,-0.65352 z"
       id="path126"
       style="fill:#070e11;stroke-width:0.264583" />
    <path
       class="cls-23"
       d="m 7.4940567,6.9262593 a 3.3998958,3.3998958 0 0 0 0.227541,1.6457076 c 0.367771,0.814917 1.074209,1.008063 1.8150423,0.510646 a 3.1564791,3.1564791 0 0 0 0.343958,-0.277812 0.46831249,0.46831249 0 0 1 0.67998,0 0.49477083,0.49477083 0 0 1 0.03969,0.732895 C 9.639831,10.664821 8.0549757,10.773301 7.1448097,9.6250059 A 3.8152916,3.8152916 0 0 1 6.4092677,7.5718389 C 6.3616477,7.1167563 6.3219577,6.6590273 6.2849137,6.2012983 a 0.52916666,0.52916666 0 0 1 0.03704,-0.246063 9.1995624,9.1995624 0 0 1 0.584729,-1.177396 3.5533541,3.5533541 0 0 1 0.8255,-0.936625 1.6853958,1.6853958 0 0 1 2.2383753,0.277813 1.7568333,1.7568333 0 0 1 0.137583,2.267479 c -0.457729,0.608542 -1.119187,0.693208 -1.8176873,0.648229 -0.246063,-0.03969 -0.48948,-0.08202 -0.796396,-0.108479 z m 0.15875,-1.000125 a 6.9479582,6.9479582 0 0 0 0.912812,0.140229 c 0.304271,0 0.6032503,-0.336021 0.7037923,-0.717021 A 0.48947916,0.48947916 0 0 0 9.084203,4.7355093 0.81491666,0.81491666 0 0 0 8.1925567,4.8386963 c -0.343959,0.211667 -0.428625,0.590021 -0.53975,1.074209 z"
       id="path128"
       style="fill:#070e11;stroke-width:0.264583" />
    <path
       class="cls-18"
       d="m 41.35014,4.4444673 c 0.224896,-0.134937 0.381,-0.238125 0.545041,-0.328083 0.992188,-0.542396 2.116667,-0.150812 2.468563,0.928687 a 14.816666,14.816666 0 0 1 0.402167,1.852084 c 0.148166,0.7646456 0.285749,1.5345826 0.428624,2.3018746 a 2.0187708,2.0187708 0 0 1 0.05821,0.373062 0.56356249,0.56356249 0 0 1 -0.489479,0.5662091 0.43920833,0.43920833 0 0 1 -0.529167,-0.4048131 C 44.112391,9.1117169 43.990682,8.4925919 43.879557,7.8681759 43.77637,7.2887379 43.694349,6.7040093 43.596453,6.1219263 a 1.5451666,1.5451666 0 0 0 -0.121708,-0.42598 1.1562292,1.1562292 0 0 0 -0.830792,-0.714375 c -0.423333,-0.06615 -0.637646,0.264584 -0.849312,0.550334 a 1.7065625,1.7065625 0 0 0 -0.333375,1.185333 c 0.07937,0.9022286 0.113771,1.8097496 0.166687,2.7172706 0.0344,0.5715001 -0.0926,0.7937501 -0.468312,0.7937501 -0.375709,0 -0.552979,-0.203729 -0.587375,-0.7328961 -0.108479,-1.748896 -0.209021,-3.4977916 -0.314854,-5.2466866 -0.02911,-0.47625 0.07673,-0.687917 0.394229,-0.732896 a 0.56091666,0.56091666 0 0 1 0.66675,0.582083 c 0,0.08202 0.01058,0.164042 0.03175,0.346604 z"
       id="path130"
       style="fill:#081012;stroke-width:0.264583" />
    <path
       class="cls-18"
       d="m 62.159623,8.2041959 c -0.46832,0.682625 -0.86784,1.30175 -1.30705,1.8917711 a 0.88899999,0.88899999 0 0 1 -0.54768,0.357188 c -0.42069,0.0291 -0.62971,-0.431271 -0.3863,-0.8069791 0.36778,-0.568855 0.75671,-1.121834 1.13507,-1.680105 l 0.46831,-0.701145 c -0.38894,-0.6852706 -0.77258,-1.3626046 -1.15358,-2.0399376 a 2.7701875,2.7701875 0 0 1 -0.2249,-0.452437 0.52916666,0.52916666 0 0 1 0.30692,-0.679979 c 0.29633,-0.145521 0.49212,0 0.62971,0.24077 0.26458,0.436563 0.48418,0.889 0.73289,1.322917 0.10054,0.179917 0.22754,0.343958 0.38629,0.579437 0.17992,-0.251354 0.32809,-0.447145 0.46567,-0.648229 0.34396,-0.505354 0.68262,-1.018646 1.02923,-1.521354 a 1.4710833,1.4710833 0 0 1 0.34396,-0.367771 0.49477083,0.49477083 0 0 1 0.64029,0.06615 0.45772916,0.45772916 0 0 1 0.0397,0.677334 q -0.6985,1.021291 -1.38907,2.042583 c -0.16404,0.243416 -0.32014,0.492125 -0.51329,0.7937496 l 1.32292,1.772708 c 0.11377,0.150813 0.25135,0.28575 0.35189,0.4445 A 0.54239583,0.54239583 0 0 1 64.379483,10.2362 c -0.23548,0.193146 -0.45773,0.177271 -0.70644,-0.121708 -0.43127,-0.5291671 -0.83608,-1.0583331 -1.25148,-1.5875001 -0.0688,-0.08996 -0.13493,-0.166687 -0.26193,-0.322792 z"
       id="path132"
       style="fill:#081012;stroke-width:0.264583" />
    <path
       class="cls-16"
       d="m 24.17339,2.0632173 c 0,-0.280458 0,-0.449791 0,-0.619125 a 0.47624999,0.47624999 0 0 1 0.428625,-0.52916598 0.52916666,0.52916666 0 0 1 0.600604,0.43391598 7.5115207,7.5115207 0 0 1 0.0926,0.944563 23.391812,23.391812 0 0 0 0.661459,4.749271 c 0.140229,0.5291656 0.306916,1.0583326 0.484187,1.5689786 0.28575,0.822854 0.830792,0.949854 1.465792,0.34925 0.322791,-0.306917 0.629708,-0.312209 0.844021,0.02117 a 0.56091666,0.56091666 0 0 1 0.05821,0.460375 1.9790833,1.9790833 0 0 1 -1.0795,1.0980211 A 1.2620625,1.2620625 0 0 1 26.435575,10.275888 3.1988125,3.1988125 0 0 1 25.48043,8.9529709 13.038667,13.038667 0 0 1 24.5782,5.6694923 c -0.171979,-1.23825 -0.280458,-2.479146 -0.404812,-3.606271 z"
       id="path134"
       style="fill:#081013;stroke-width:0.264583" />
    <path
       class="cls-18"
       d="m 55.537093,6.6801963 a 5.2546249,5.2546249 0 0 0 0.56621,1.9473336 c 0.26459,0.481541 0.43921,0.508 0.96838,0.288396 a 0.86783332,0.86783332 0 0 1 0.58737,-0.03175 0.44979166,0.44979166 0 0 1 0.11907,0.772583 1.4155208,1.4155208 0 0 1 -2.04259,0.06085 c -0.6985,-0.645583 -0.98954,-1.502833 -1.19327,-2.397125 -0.0873,-0.3889366 -0.15346,-0.7937496 -0.22489,-1.1747496 -0.11907,-0.650875 0.5662,-2.082271 1.14829,-2.405062 a 1.3917083,1.3917083 0 0 1 1.82562,0.296333 1.5531041,1.5531041 0 0 1 -0.0714,1.928812 1.7383125,1.7383125 0 0 1 -1.02129,0.590021 z m -0.0159,-1.150937 a 3.7544375,3.7544375 0 0 0 0.66146,0 c 0.21431,-0.04233 0.43921,-0.177271 0.36512,-0.423333 a 0.82285416,0.82285416 0 0 0 -0.40216,-0.423334 c -0.20902,-0.105833 -0.35719,0.06879 -0.43657,0.264584 -0.0794,0.195791 -0.11377,0.33602 -0.18785,0.582083 z"
       id="path136"
       style="fill:#081012;stroke-width:0.264583" />
    <path
       class="cls-16"
       d="m 19.191286,4.8678013 c 0.193146,-0.238125 0.312208,-0.404813 0.449791,-0.555625 a 1.5610416,1.5610416 0 0 1 2.39448,-0.02381 c 0.248708,0.277813 0.264583,0.494771 0.06085,0.724958 a 0.52916666,0.52916666 0 0 1 -0.732896,0.05821 c -0.08731,-0.05821 -0.15875,-0.140229 -0.248708,-0.193146 -0.373063,-0.224896 -0.637646,-0.153458 -0.809625,0.264583 a 3.8364583,3.8364583 0 0 0 -0.230188,1.852084 c 0.06615,0.6905616 0.174625,1.3784786 0.264583,2.0690406 0.01852,0.145521 0.03704,0.293688 0.04233,0.441854 0,0.420688 -0.07673,0.5556251 -0.391584,0.6006051 -0.314854,0.04498 -0.529166,-0.07673 -0.645583,-0.4497921 -0.206375,-0.73025 -0.394229,-1.463146 -0.587375,-2.198688 Q 18.397536,6.0848843 18.040348,4.7064053 a 2.6643541,2.6643541 0 0 1 -0.100541,-0.492125 0.51593749,0.51593749 0 0 1 0.97102,-0.232833 c 0.105834,0.248708 0.164042,0.518583 0.280459,0.886354 z"
       id="path138"
       style="fill:#081013;stroke-width:0.264583" />
    <path
       class="cls-17"
       d="m 39.003286,9.9107589 a 0.56356249,0.56356249 0 0 1 -0.465667,0.5873751 c -0.296333,0.05556 -0.505354,-0.07144 -0.587375,-0.428625 C 37.772973,9.3101549 37.627452,8.5428629 37.468702,7.7782169 Q 36.913077,5.0874053 36.352161,2.3965923 c -0.01323,-0.0635 -0.04498,-0.121708 -0.05292,-0.182562 a 0.55033333,0.55033333 0 0 1 0.455083,-0.648229 c 0.298979,-0.05556 0.508,0.07144 0.590021,0.425979 0.177271,0.780521 0.328083,1.566333 0.489479,2.352146 q 0.550334,2.645833 1.103313,5.3234156 c 0.01588,0.08202 0.04233,0.169334 0.06615,0.243417 z"
       id="path140"
       style="fill:#081316;stroke-width:0.264583" />
    <path
       class="cls-23"
       d="m 32.166452,5.9102593 c -0.338666,0 -0.674687,0 -1.013354,0 a 2.6114375,2.6114375 0 0 1 -0.621771,-0.103188 0.48947916,0.48947916 0 0 1 -0.359833,-0.59002 0.46566666,0.46566666 0 0 1 0.529167,-0.420688 c 0.251354,0.01587 0.502708,0.0635 0.754062,0.06615 0.632354,0 1.267354,0 1.899708,0 a 0.51064583,0.51064583 0 0 1 0.558271,0.322792 0.48683333,0.48683333 0 0 1 -0.198437,0.611187 1.0080625,1.0080625 0 0 1 -0.478896,0.116417 c -0.357188,0.01852 -0.717021,0 -1.076854,0 z"
       id="path142"
       style="fill:#070e11;stroke-width:0.264583" />
  </g>
</svg>
