<?xml version="1.0" encoding="UTF-8" standalone="no"?>
<!-- Created with Inkscape (http://www.inkscape.org/) -->

<svg
   width="81.126976mm"
   height="9.5046749mm"
   viewBox="0 0 81.126976 9.5046749"
   version="1.1"
   id="svg4560"
   inkscape:version="1.1.2 (b8e25be833, 2022-02-05)"
   sodipodi:docname="side-effects.svg"
   xmlns:inkscape="http://www.inkscape.org/namespaces/inkscape"
   xmlns:sodipodi="http://sodipodi.sourceforge.net/DTD/sodipodi-0.dtd"
   xmlns="http://www.w3.org/2000/svg"
   xmlns:svg="http://www.w3.org/2000/svg">
  <sodipodi:namedview
     id="namedview4562"
     pagecolor="#ffffff"
     bordercolor="#111111"
     borderopacity="1"
     inkscape:pageshadow="0"
     inkscape:pageopacity="0"
     inkscape:pagecheckerboard="1"
     inkscape:document-units="mm"
     showgrid="false"
     inkscape:zoom="4.3187876"
     inkscape:cx="174.23871"
     inkscape:cy="22.691554"
     inkscape:window-width="1920"
     inkscape:window-height="1017"
     inkscape:window-x="-8"
     inkscape:window-y="-8"
     inkscape:window-maximized="1"
     inkscape:current-layer="layer1" />
  <defs
     id="defs4557" />
  <g
     inkscape:label="Layer 1"
     inkscape:groupmode="layer"
     id="layer1"
     transform="translate(-67.562532,-101.29434)">
    <path
       class="cls-16"
       d="m 72.320003,107.50976 c -0.03175,-0.62442 -0.05821,-1.24619 -0.09525,-1.87061 -0.06615,-1.11654 -0.140229,-2.23308 -0.211666,-3.34962 -0.01852,-0.29634 0,-0.56092 0.357187,-0.64559 a 0.52916666,0.52916666 0 0 1 0.6985,0.45244 4.0745833,4.0745833 0 0 1 0.0635,0.56621 q 0.211667,3.35492 0.41275,6.70454 c 0,0.0212 0,0.0423 0,0.0635 0,0.29369 0.06615,0.60854 -0.320146,0.73554 -0.293687,0.0979 -0.529166,0 -0.79375,-0.36248 -1.068916,-1.54516 -2.12725,-3.09297 -3.201458,-4.63814 -0.127,-0.18521 -0.264583,-0.35983 -0.439208,-0.59002 0,0.52916 -0.01588,0.98689 0,1.43933 0.05027,1.30704 0.113771,2.61673 0.171979,3.92377 0,0.127 0.04762,0.28046 0,0.37571 a 0.98689582,0.98689582 0 0 1 -0.388938,0.44715 0.44714583,0.44714583 0 0 1 -0.59002,-0.23284 1.42875,1.42875 0 0 1 -0.124355,-0.54769 q -0.148166,-3.48456 -0.280458,-6.96647 c 0,-0.0847 -0.01852,-0.16934 -0.01588,-0.26459 0.0291,-0.49212 0.439208,-0.72496 0.841375,-0.43921 a 2.88925,2.88925 0 0 1 0.637646,0.69057 c 0.947208,1.34937 1.881187,2.70933 2.820458,4.064 0.113771,0.16404 0.235479,0.32279 0.354542,0.48418 z"
       id="path44"
       style="fill:#081013;stroke-width:0.264583" />
    <path
       class="cls-17"
       d="m 136.02638,107.40657 -1.13242,0.20637 a 2.1325416,2.1325416 0 0 1 -0.30956,0.0609 0.58208333,0.58208333 0 0 1 -0.56886,-0.49742 0.46037499,0.46037499 0 0 1 0.39423,-0.55827 c 0.61648,-0.14287 1.23561,-0.26458 1.85209,-0.38364 a 0.74877082,0.74877082 0 0 1 0.84402,0.67204 c 0.0317,0.79375 0.037,1.56633 0,2.34685 -0.0238,0.47625 -0.48419,0.65881 -0.87842,0.381 a 2.1563541,2.1563541 0 0 1 -0.26458,-0.2831 c -1.09273,0.58208 -2.01613,0.20902 -2.8284,-0.55034 -1.05833,-0.99218 -1.7145,-2.19604 -1.64835,-3.70416 a 2.9818541,2.9818541 0 0 1 1.2991,-2.48444 2.3547916,2.3547916 0 0 1 2.97392,0.23019 1.2514792,1.2514792 0 0 1 0.29369,0.40481 0.54504166,0.54504166 0 0 1 -0.21696,0.6694 0.42597916,0.42597916 0 0 1 -0.61913,-0.0767 l -0.045,-0.045 c -0.41539,-0.42334 -0.889,-0.64294 -1.48166,-0.39423 a 1.7065625,1.7065625 0 0 0 -1.0795,1.45256 c -0.1614,1.40229 0.42862,2.51619 1.46843,3.39725 0.67469,0.57415 1.56634,0.33867 1.94734,-0.46831 a 1.254125,1.254125 0 0 0 0,-0.37571 z"
       id="path46"
       style="fill:#081316;stroke-width:0.264583" />
    <path
       class="cls-18"
       d="m 82.474712,105.0068 a 9.395354,9.395354 0 0 1 1.307041,-0.19579 2.3574375,2.3574375 0 0 1 2.360084,2.19604 2.7225625,2.7225625 0 0 1 -1.201209,2.5691 5.7467499,5.7467499 0 0 1 -1.17475,0.60854 c -0.357187,0.15346 -0.756708,0.15611 -1.058333,0.49213 -0.216958,0.23812 -0.640292,0.0714 -0.777875,-0.26458 a 1.7356666,1.7356666 0 0 1 -0.103188,-0.49478 q -0.34925,-3.88143 -0.687916,-7.76022 c 0,-0.0847 -0.02646,-0.16934 -0.0291,-0.26459 0,-0.37835 0.119062,-0.55827 0.420687,-0.59266 a 0.56885416,0.56885416 0 0 1 0.642938,0.48154 c 0.0635,0.41539 0.08731,0.83873 0.127,1.25941 0.0635,0.67205 0.121708,1.32557 0.174625,1.96586 z m 0.381,4.23333 a 2.2939375,2.2939375 0 0 0 1.994958,-1.07421 1.6060208,1.6060208 0 0 0 -0.08996,-1.78064 1.2276667,1.2276667 0 0 0 -1.394355,-0.44715 c -0.529166,0.20109 -0.735541,0.52917 -0.690562,1.18798 0.0635,0.67733 0.121708,1.3679 0.185208,2.10079 z"
       id="path48"
       style="fill:#081012;stroke-width:0.264583" />
    <path
       class="cls-18"
       d="m 101.17546,106.74247 c -0.16669,0.82285 -0.30427,1.5187 -0.44714,2.2172 -0.0238,0.12436 -0.0556,0.24607 -0.082,0.37042 a 0.47360416,0.47360416 0 0 1 -0.49477,0.40481 c -0.179913,0 -0.3466,-0.18256 -0.513288,-0.28839 -0.0291,-0.0212 -0.03704,-0.0741 -0.05556,-0.11377 q -0.762,-1.67217 -1.524,-3.34169 a 0.67204166,0.67204166 0 0 1 -0.08996,-0.29633 0.61383333,0.61383333 0 0 1 0.441855,-0.56092 0.42862499,0.42862499 0 0 1 0.560916,0.26458 c 0.209021,0.43656 0.407459,0.88106 0.613834,1.32292 0.08731,0.18521 0.185208,0.36777 0.333374,0.66146 0.150809,-0.70644 0.280459,-1.29117 0.396879,-1.8759 0.0503,-0.25135 0.0661,-0.52917 0.381,-0.59002 a 0.70908332,0.70908332 0 0 1 0.7567,0.34131 c 0.43657,0.5715 0.87577,1.13771 1.32292,1.70657 0.0503,0.0635 0.10848,0.11906 0.22754,0.2487 0.14023,-0.81227 0.26459,-1.54781 0.39159,-2.28335 0.0212,-0.127 0.0212,-0.26458 0.0529,-0.37571 0.0847,-0.35454 0.28311,-0.52917 0.55563,-0.48154 a 0.60324999,0.60324999 0 0 1 0.52916,0.68262 c -0.0661,0.52917 -0.16404,1.03982 -0.26458,1.56105 -0.12171,0.7276 -0.25135,1.4552 -0.36512,2.18281 -0.0423,0.26458 -0.10848,0.55562 -0.39953,0.56356 a 0.92868749,0.92868749 0 0 1 -0.65616,-0.26458 c -0.48419,-0.55827 -0.91281,-1.16152 -1.36525,-1.74625 -0.0688,-0.0688 -0.14552,-0.14023 -0.30692,-0.30956 z"
       id="path50"
       style="fill:#081012;stroke-width:0.264583" />
    <path
       class="cls-16"
       d="m 114.611,107.00969 0.16404,1.6219 c 0.0185,0.18785 0.0344,0.37835 0.0503,0.56621 a 0.45772916,0.45772916 0 0 1 -0.3863,0.55827 0.57414583,0.57414583 0 0 1 -0.64823,-0.38365 1.8520833,1.8520833 0 0 1 -0.0873,-0.43391 q -0.30691,-2.96069 -0.60854,-5.92138 c -0.0397,-0.38894 0.10319,-0.61912 0.4101,-0.6641 a 0.58208333,0.58208333 0 0 1 0.66675,0.52916 c 0.0661,0.43921 0.0979,0.88107 0.14288,1.32292 0.0661,0.62442 0.13229,1.24619 0.21431,2.02936 0.23813,-0.26459 0.39159,-0.4154 0.52917,-0.58209 0.33073,-0.38364 0.65087,-0.77787 0.98425,-1.15887 0.33337,-0.381 0.54504,-0.40217 0.79375,-0.17992 0.24871,0.22225 0.30162,0.52917 0,0.88635 -0.33073,0.41275 -0.67998,0.79375 -1.05833,1.24619 a 4.8286458,4.8286458 0 0 0 0.34925,0.34925 c 0.81491,0.67469 1.63777,1.32292 2.44739,2.01613 0.3175,0.26458 0.34131,0.45508 0.15081,0.70114 a 0.55033333,0.55033333 0 0 1 -0.78052,0.14817 3.33375,3.33375 0 0 1 -0.35454,-0.26458 c -0.76729,-0.62971 -1.53194,-1.26471 -2.30452,-1.88913 -0.16404,-0.15875 -0.37306,-0.28575 -0.67469,-0.49742 z"
       id="path52"
       style="fill:#081013;stroke-width:0.264583" />
    <path
       class="cls-18"
       d="m 138.62723,106.17626 c -0.43921,1.45521 0.89429,2.92629 2.77813,2.40506 0.1217,-0.0344 0.23548,-0.0979 0.35454,-0.13229 a 0.56091666,0.56091666 0 0 1 0.70644,0.35718 0.46831249,0.46831249 0 0 1 -0.29105,0.61648 3.1088541,3.1088541 0 0 1 -2.02935,0.30427 3.3549166,3.3549166 0 0 1 -2.68817,-2.91041 c -0.16139,-1.52665 1.19327,-3.14854 2.72786,-3.25967 a 1.571625,1.571625 0 0 1 1.67481,1.45521 1.4234583,1.4234583 0 0 1 -1.51077,1.44198 13.192125,13.192125 0 0 1 -1.72244,-0.27781 z m 0.60854,-1.15623 0.0265,0.18521 a 8.0142291,8.0142291 0 0 0 1.10596,0.17727 c 0.32015,0 0.43392,-0.23019 0.30692,-0.52917 a 0.41274999,0.41274999 0 0 0 -0.56092,-0.26458 c -0.30163,0.12171 -0.58738,0.28575 -0.87842,0.43127 z"
       id="path54"
       style="fill:#081012;stroke-width:0.264583" />
    <path
       class="cls-16"
       d="m 123.09354,107.82197 c -0.19843,0.3466 -0.33337,0.60324 -0.48947,0.85195 a 2.079625,2.079625 0 0 1 -3.60363,-0.22225 2.8495625,2.8495625 0 0 1 -0.24606,-2.02935 12.170833,12.170833 0 0 1 0.381,-1.32292 0.54768749,0.54768749 0 0 1 0.75406,-0.37306 c 0.26458,0.10319 0.3466,0.30956 0.26458,0.69056 -0.10054,0.49742 -0.23548,0.9869 -0.29368,1.48696 a 3.0427083,3.0427083 0 0 0 0.0635,1.00277 0.73024999,0.73024999 0 0 0 0.84137,0.60061 c 0.58473,-0.0238 1.05833,-0.29634 1.21708,-0.84932 a 11.890375,11.890375 0 0 0 0.29634,-1.79652 5.1673124,5.1673124 0 0 0 -0.0238,-0.56885 0.46831249,0.46831249 0 0 1 0.36247,-0.52917 0.55562499,0.55562499 0 0 1 0.65088,0.26459 1.9737916,1.9737916 0 0 1 0.16933,0.40745 l 1.08744,3.175 a 3.063875,3.063875 0 0 1 0.0952,0.30163 c 0.0794,0.36248 0,0.54504 -0.31221,0.65352 a 0.52916666,0.52916666 0 0 1 -0.68791,-0.28575 c -0.11642,-0.24606 -0.1905,-0.51329 -0.28311,-0.77258 -0.0635,-0.19315 -0.13494,-0.39159 -0.24342,-0.68527 z"
       id="path56"
       style="fill:#081013;stroke-width:0.264583" />
    <path
       class="cls-19"
       d="m 88.483399,106.98588 a 8.0062916,8.0062916 0 0 0 0.394229,0.93663 c 0.558271,0.94456 1.664229,0.93662 2.225146,0 0.206375,-0.34925 0.481542,-0.45509 0.780521,-0.30427 0.298979,0.15081 0.351896,0.43656 0.179916,0.82285 -0.529166,1.20385 -2.198687,1.67746 -3.405187,0.82021 a 2.9262916,2.9262916 0 0 1 -1.119188,-1.7145 c -0.103187,-0.39423 -0.105833,-0.79375 -0.513291,-1.08479 -0.240771,-0.16669 -0.153459,-0.56621 0.164041,-0.73819 a 0.90487499,0.90487499 0 0 0 0.433917,-0.57679 2.1166666,2.1166666 0 0 1 1.651,-1.41817 c 1.232958,-0.28839 1.825625,0.86783 1.621896,1.64042 a 1.8997083,1.8997083 0 0 1 -1.49225,1.47108 c -0.264583,0.0582 -0.537104,0.0847 -0.92075,0.14552 z m 0.06085,-1.20914 a 0.98689582,0.98689582 0 0 0 1.074208,-0.30692 c 0.153459,-0.15346 0.33073,-0.37306 0.15875,-0.52917 a 0.83343749,0.83343749 0 0 0 -0.624416,-0.12435 c -0.132292,0.0185 -0.277813,0.18785 -0.357188,0.32279 a 4.5825833,4.5825833 0 0 0 -0.251354,0.63765 z"
       id="path58"
       style="fill:#081114;stroke-width:0.264583" />
    <path
       class="cls-20"
       d="m 144.55919,105.35076 a 7.4083332,7.4083332 0 0 1 1.05833,-0.26459 c 1.43404,-0.16668 2.35479,0.84932 2.72257,1.75155 a 5.8737499,5.8737499 0 0 1 0.3466,2.17752 c 0,0.31485 -0.0317,0.63235 -0.0556,0.9472 a 1.1138958,1.1138958 0 0 1 -0.045,0.31221 0.57679166,0.57679166 0 0 1 -0.65088,0.38365 c -0.3175,-0.0503 -0.40746,-0.26459 -0.39687,-0.54769 a 14.620875,14.620875 0 0 0 0.0556,-1.51871 5.5562499,5.5562499 0 0 0 -0.26458,-1.29381 1.6457083,1.6457083 0 0 0 -0.90488,-1.00806 c -0.58737,-0.28046 -1.09273,-0.12171 -1.51606,0.35983 a 1.5583958,1.5583958 0 0 0 -0.38629,1.20386 c 0.0317,0.56885 0.0159,1.14035 0,1.71185 0,0.40481 -0.22225,0.64294 -0.52917,0.64558 a 0.56885416,0.56885416 0 0 1 -0.56092,-0.63764 q -0.0159,-2.28071 0,-4.56407 c 0,-0.40481 0.23019,-0.635 0.55828,-0.63235 0.32808,0.003 0.508,0.21167 0.54768,0.64029 z"
       id="path60"
       style="fill:#081215;stroke-width:0.264583" />
    <path
       class="cls-18"
       d="m 76.346962,106.76363 a 3.8073541,3.8073541 0 0 0 0.420687,1.80711 1.1059583,1.1059583 0 0 0 0.709083,0.59002 c 0.45773,0.127 0.706438,0.0503 0.976313,-0.33602 0.02381,-0.0344 0.03175,-0.0794 0.05821,-0.11113 a 0.56091666,0.56091666 0 0 1 0.767292,-0.20902 c 0.264583,0.15081 0.328083,0.39423 0.153458,0.76729 a 1.6642291,1.6642291 0 0 1 -1.251479,0.97631 c -0.79375,0.14288 -1.539875,-0.045 -2.045229,-0.71437 a 4.3338749,4.3338749 0 0 1 -0.690563,-4.18835 1.920875,1.920875 0 0 1 1.902355,-1.30705 1.2752917,1.2752917 0 0 1 1.203854,0.77523 1.3837708,1.3837708 0 0 1 -0.07937,1.49754 1.5875,1.5875 0 0 1 -1.68275,0.60061 c -0.134938,-0.037 -0.264584,-0.09 -0.441854,-0.14817 z m 0.1905,-1.32291 0.03969,0.18256 a 2.50825,2.50825 0 0 0 0.560917,0.20373 0.365125,0.365125 0 0 0 0.367771,-0.46302 0.28839583,0.28839583 0 0 0 -0.41275,-0.24871 3.2781875,3.2781875 0 0 0 -0.555625,0.32279 z"
       id="path62"
       style="fill:#081012;stroke-width:0.264583" />
    <path
       class="cls-16"
       d="m 93.904711,105.35605 a 5.2387499,5.2387499 0 0 1 0.859896,-0.28046 c 1.016,-0.15346 1.883834,0.39158 2.288646,1.39435 a 4.4741041,4.4741041 0 0 1 0.214313,2.06111 7.5908957,7.5908957 0 0 1 -0.127,0.87577 c -0.08202,0.39952 -0.264584,0.52917 -0.600605,0.49212 a 0.56885416,0.56885416 0 0 1 -0.481541,-0.6932 c 0.04762,-0.37571 0.140229,-0.74878 0.164041,-1.12448 0.04233,-0.62707 -0.04233,-1.22767 -0.529166,-1.69598 a 0.77258332,0.77258332 0 0 0 -0.854604,-0.26459 c -0.312209,0.11907 -0.370417,0.39159 -0.455084,0.69586 -0.195791,0.71437 0.08467,1.36525 0.164042,2.04258 0.01587,0.12436 0.0635,0.24606 0.07144,0.37042 a 0.55297916,0.55297916 0 0 1 -0.447145,0.65616 c -0.33073,0.0635 -0.502709,-0.0582 -0.600605,-0.47625 -0.124354,-0.52916 -0.22225,-1.0742 -0.328083,-1.61131 -0.156104,-0.79375 -0.312208,-1.57162 -0.463021,-2.35743 a 2.5452916,2.5452916 0 0 1 -0.06879,-0.56357 0.54768749,0.54768749 0 0 1 0.529166,-0.52916 0.46831249,0.46831249 0 0 1 0.500063,0.39687 c 0.06085,0.21167 0.111125,0.41275 0.164041,0.61119 z"
       id="path64"
       style="fill:#081013;stroke-width:0.264583" />
    <path
       class="cls-19"
       d="m 126.92471,105.49099 a 5.6276874,5.6276874 0 0 1 1.16152,-0.41011 c 1.02394,-0.12435 1.97115,0.63765 2.2225,1.75684 a 5.9187291,5.9187291 0 0 1 -0.10848,2.57439 0.43656249,0.43656249 0 0 1 -0.51329,0.36513 c -0.28839,-0.0212 -0.49212,-0.15611 -0.508,-0.45773 a 4.6063958,4.6063958 0 0 1 0.0582,-0.62707 9.5593957,9.5593957 0 0 0 0.082,-1.19591 1.793875,1.793875 0 0 0 -0.22225,-0.77788 c -0.39952,-0.70379 -1.05833,-0.74877 -1.5875,-0.13493 a 1.9023541,1.9023541 0 0 0 -0.52917,1.56633 6.3103124,6.3103124 0 0 1 0.0318,0.94985 0.49741666,0.49741666 0 0 1 -0.46302,0.51329 0.56885416,0.56885416 0 0 1 -0.62971,-0.4392 1.7832916,1.7832916 0 0 1 -0.0264,-0.37836 c -0.0291,-1.01335 -0.0609,-2.02671 -0.09,-3.04006 0,-0.0847 0,-0.16933 0,-0.26458 a 0.52916666,0.52916666 0 0 1 0.37041,-0.52917 0.52916666,0.52916666 0 0 1 0.65088,0.26458 1.3361458,1.3361458 0 0 1 0.10054,0.26459 z"
       id="path66"
       style="fill:#081114;stroke-width:0.264583" />
    <path
       class="cls-16"
       d="m 111.34075,105.41955 c -0.73025,0.61119 -0.90223,1.37319 -0.75406,2.23308 0.0635,0.37042 0.17727,0.73554 0.26458,1.10331 a 0.56885416,0.56885416 0 0 1 -0.18785,0.62707 0.48154166,0.48154166 0 0 1 -0.79375,-0.14817 3.9158333,3.9158333 0 0 1 -0.26458,-0.77258 c -0.26459,-1.14829 -0.52917,-2.29923 -0.79375,-3.43959 a 0.84666666,0.84666666 0 0 1 -0.0609,-0.24077 0.56356249,0.56356249 0 0 1 0.45773,-0.52916 0.45508333,0.45508333 0 0 1 0.56886,0.28045 5.8419999,5.8419999 0 0 1 0.19314,0.5768 5.4160208,5.4160208 0 0 1 0.45773,-0.38365 1.5451666,1.5451666 0 0 1 1.24883,-0.29104 1.0583333,1.0583333 0 0 1 0.81492,0.79375 0.55827083,0.55827083 0 0 1 -0.26458,0.70114 c -0.27782,0.13494 -0.52917,0.0476 -0.73025,-0.26458 z"
       id="path68"
       style="fill:#081013;stroke-width:0.264583" />
    <path
       class="cls-18"
       d="m 107.53869,108.75859 a 0.46831249,0.46831249 0 0 1 -0.39423,0.55033 0.56356249,0.56356249 0 0 1 -0.66939,-0.43656 8.5407499,8.5407499 0 0 1 -0.0979,-0.94192 c -0.0767,-0.92339 -0.15875,-1.85208 -0.21696,-2.77018 -0.0318,-0.46038 0.0847,-0.59532 0.43656,-0.61119 a 0.52916666,0.52916666 0 0 1 0.62177,0.55827 c 0.127,1.21708 0.21432,2.43417 0.32015,3.65125 z"
       id="path70"
       style="fill:#081012;stroke-width:0.264583" />
    <path
       class="cls-21"
       d="m 105.80832,102.82399 a 0.70114582,0.70114582 0 0 1 0.66145,-0.7673 0.79374999,0.79374999 0 0 1 0.75936,0.77259 c 0,0.4445 -0.32544,0.84931 -0.67469,0.84931 a 0.81227082,0.81227082 0 0 1 -0.74612,-0.8546 z"
       id="path72"
       style="fill:#0b1518;stroke-width:0.264583" />
  </g>
</svg>
