<?xml version="1.0" encoding="UTF-8" standalone="no"?>
<!-- Created with Inkscape (http://www.inkscape.org/) -->

<svg
   width="72.23764mm"
   height="11.15077mm"
   viewBox="0 0 72.23764 11.15077"
   version="1.1"
   id="svg2872"
   inkscape:version="1.1.2 (b8e25be833, 2022-02-05)"
   sodipodi:docname="sti-protection.svg"
   xmlns:inkscape="http://www.inkscape.org/namespaces/inkscape"
   xmlns:sodipodi="http://sodipodi.sourceforge.net/DTD/sodipodi-0.dtd"
   xmlns="http://www.w3.org/2000/svg"
   xmlns:svg="http://www.w3.org/2000/svg">
  <sodipodi:namedview
     id="namedview2874"
     pagecolor="#ffffff"
     bordercolor="#111111"
     borderopacity="1"
     inkscape:pageshadow="0"
     inkscape:pageopacity="0"
     inkscape:pagecheckerboard="1"
     inkscape:document-units="mm"
     showgrid="false"
     inkscape:zoom="3.053844"
     inkscape:cx="143.58952"
     inkscape:cy="61.561756"
     inkscape:window-width="1920"
     inkscape:window-height="1017"
     inkscape:window-x="-8"
     inkscape:window-y="-8"
     inkscape:window-maximized="1"
     inkscape:current-layer="layer1" />
  <defs
     id="defs2869" />
  <g
     inkscape:label="Layer 1"
     inkscape:groupmode="layer"
     id="layer1"
     transform="translate(-21.409771,-72.400111)">
    <path
       class="cls-20"
       d="m 27.467451,75.295025 c -0.03969,0.291042 -0.07937,0.584729 -0.116417,0.875771 a 0.43920833,0.43920833 0 0 1 -0.502708,0.447146 0.57943749,0.57943749 0 0 1 -0.529167,-0.611188 c 0.01852,-0.357187 0.0635,-0.711729 0.08467,-1.058333 a 1.30175,1.30175 0 0 0 -0.370417,-0.978958 c -0.296333,-0.3175 -0.621771,-0.627063 -1.090083,-0.486834 a 1.2329583,1.2329583 0 0 0 -0.936625,1.084792 2.6722916,2.6722916 0 0 0 0.105833,1.180041 14.152562,14.152562 0 0 0 0.928687,1.788584 c 0.343959,0.605896 0.767292,1.166812 1.074209,1.788583 a 3.2623125,3.2623125 0 0 1 0.346604,2.209271 c -0.238125,1.058333 -0.844021,1.762125 -1.905,1.971146 -1.018646,0.201083 -1.815042,-0.277813 -2.405062,-1.076854 C 21.561954,81.62915 21.4376,80.594629 21.411141,79.594504 a 0.43656249,0.43656249 0 0 1 0.423334,-0.470958 0.50270833,0.50270833 0 0 1 0.587375,0.370416 2.9104166,2.9104166 0 0 1 0.05821,0.627063 3.3099375,3.3099375 0 0 0 0.394229,1.518708 c 0.394229,0.685271 1.132417,1.005417 1.756833,0.764646 A 1.4710833,1.4710833 0 0 0 25.477784,80.679296 7.2813332,7.2813332 0 0 0 24.792513,79.0574 c -0.354542,-0.648229 -0.830792,-1.227667 -1.17475,-1.881188 a 7.1913749,7.1913749 0 0 1 -0.679979,-1.759479 2.5347083,2.5347083 0 0 1 1.677458,-2.910416 2.0452291,2.0452291 0 0 1 2.38125,0.849312 3.5268958,3.5268958 0 0 1 0.470959,1.939396 z"
       id="path144"
       style="fill:#081215;stroke-width:0.264583" />
    <path
       class="cls-20"
       d="m 77.748867,75.033087 a 2.2304375,2.2304375 0 0 1 -0.03175,0.391584 0.50270833,0.50270833 0 0 1 -0.563563,0.404812 c -0.283104,0 -0.428625,-0.171979 -0.457729,-0.497416 a 9.9562707,9.9562707 0 0 0 -0.103188,-1.129771 0.61912499,0.61912499 0 0 0 -0.635,-0.590021 0.72760416,0.72760416 0 0 0 -0.851958,0.500063 1.7356666,1.7356666 0 0 0 0.05821,1.534583 14.552083,14.552083 0 0 0 0.984249,1.547812 5.3313541,5.3313541 0 0 1 1.021292,2.360084 c 0.243417,1.688041 -1.058333,3.190875 -2.693458,3.095625 -1.341438,-0.07937 -2.219854,-1.17475 -1.942042,-2.415646 a 3.0294791,3.0294791 0 0 1 0.121709,-0.359834 0.44714583,0.44714583 0 0 1 0.460375,-0.354541 0.65352083,0.65352083 0 0 1 0.508,0.579437 2.3151041,2.3151041 0 0 1 -0.08731,0.367771 c -0.111125,0.619125 0.07408,0.912813 0.677333,1.082146 a 1.508125,1.508125 0 0 0 1.878542,-1.30175 2.8548541,2.8548541 0 0 0 -0.508,-2.045229 c -0.304271,-0.457729 -0.637646,-0.894292 -0.939271,-1.354667 a 4.0719374,4.0719374 0 0 1 -0.748771,-2.058458 2.1325416,2.1325416 0 0 1 1.852084,-2.270125 1.6377708,1.6377708 0 0 1 1.603375,0.817562 3.4184166,3.4184166 0 0 1 0.396875,1.695979 z"
       id="path146"
       style="fill:#081215;stroke-width:0.264583" />
    <path
       class="cls-17"
       d="m 34.283117,78.557337 c 0.0635,0.508 0.124354,1.023938 0.195792,1.542521 0.103187,0.772584 0.216958,1.545167 0.322792,2.320396 a 3.07975,3.07975 0 0 1 0.03704,0.441854 0.60060416,0.60060416 0 0 1 -0.529166,0.613834 c -0.264584,0.02646 -0.452438,-0.145521 -0.508,-0.529167 -0.137584,-0.941917 -0.264584,-1.883833 -0.391584,-2.823104 A 6.2044791,6.2044791 0 0 0 33.256533,79.515129 2.143125,2.143125 0 0 1 33.11895,78.903942 c 0.08202,-1.344084 -0.296334,-2.645834 -0.418042,-3.96875 -0.02117,-0.230188 -0.06879,-0.460375 -0.06879,-0.693209 a 0.57414583,0.57414583 0 0 1 0.529167,-0.60325 c 0.264583,-0.01852 0.4445,0.156105 0.500062,0.529167 0.132292,0.918104 0.264584,1.838854 0.381,2.759604 0.02117,0.145521 0.04762,0.288396 0.06879,0.428625 a 4.9397708,4.9397708 0 0 1 0.817563,0 c 0.891645,0.156104 1.529291,0.664104 1.73302,1.550458 a 17.258771,17.258771 0 0 1 0.264584,2.132542 c 0.04233,0.396875 0.0635,0.79375 0.100541,1.195917 0.03704,0.402166 -0.105833,0.60325 -0.418041,0.66675 -0.357188,0.07408 -0.579438,-0.07937 -0.627063,-0.529167 -0.06879,-0.672042 -0.07408,-1.349375 -0.132291,-2.021417 a 4.9662291,4.9662291 0 0 0 -0.201084,-1.240895 c -0.216958,-0.568855 -0.650875,-0.746125 -1.36525,-0.55298 z"
       id="path148"
       style="fill:#081316;stroke-width:0.264583" />
    <path
       class="cls-16"
       d="m 49.269117,80.253317 c -0.312208,-0.04498 -0.497417,-0.06879 -0.685271,-0.100542 -0.343958,-0.05556 -0.529166,-0.235479 -0.529166,-0.513292 0,-0.277812 0.195791,-0.502708 0.584729,-0.529166 a 3.556,3.556 0 0 1 0.822854,0.01852 c 0.687916,0.129646 1.058333,-0.227541 1.36525,-0.867833 l -0.703792,-0.0635 c -0.338667,-0.03175 -0.674687,-0.05027 -1.010708,-0.09525 -0.391583,-0.05292 -0.616479,-0.291042 -0.595313,-0.60325 0.02117,-0.312208 0.209021,-0.455083 0.642938,-0.425979 0.928687,0.06615 1.852083,0.140229 2.775479,0.248708 0.529167,0.06085 0.672042,0.478896 0.341312,0.918104 -0.224895,0.29898 -0.470958,0.582084 -0.740833,0.910167 0.216958,0.05027 0.399521,0.03969 0.481542,0.124354 a 0.89429166,0.89429166 0 0 1 0.283104,0.529167 0.42597916,0.42597916 0 0 1 -0.4445,0.441854 c -0.296333,0 -0.592667,0 -0.886354,0 a 0.57149999,0.57149999 0 0 0 -0.529167,0.248708 c -0.264583,0.346605 -0.529167,0.674688 -0.846667,1.058334 H 51.1212 c 0.357188,0 0.717021,-0.01852 1.076854,0 0.359834,0.01852 0.545042,0.171979 0.566209,0.463021 a 0.50799999,0.50799999 0 0 1 -0.529167,0.5715 c -0.674687,0.04233 -1.349375,0.0635 -2.026708,0.08202 -0.568854,0.01588 -1.140354,0 -1.711854,0.01852 a 0.52916666,0.52916666 0 0 1 -0.529167,-0.248708 0.55827083,0.55827083 0 0 1 0.08467,-0.648229 z"
       id="path150"
       style="fill:#081013;stroke-width:0.264583" />
    <path
       class="cls-21"
       d="m 81.913408,74.903442 c -0.740833,0 -1.373187,0 -2.005541,0 a 1.1641667,1.1641667 0 0 1 -0.428625,-0.06615 0.48154166,0.48154166 0 0 1 -0.304271,-0.566208 0.44979166,0.44979166 0 0 1 0.425979,-0.402167 c 0.293687,-0.02381 0.587375,-0.05556 0.883708,-0.05556 q 2.248959,-0.01587 4.497917,0 a 1.9949583,1.9949583 0 0 1 0.502708,0.0344 0.51329166,0.51329166 0 0 1 0,0.997479 2.6722916,2.6722916 0 0 1 -0.502708,0.04498 c -0.653521,0 -1.309688,0 -2.039938,0 0,0.595313 0,1.15623 0,1.719792 0.03704,1.836208 0.08202,3.672417 0.121709,5.508625 a 2.2833541,2.2833541 0 0 1 0,0.381 0.45772916,0.45772916 0 0 1 -0.463021,0.431271 0.47889583,0.47889583 0 0 1 -0.552979,-0.402167 2.2198541,2.2198541 0 0 1 -0.0344,-0.439208 q -0.05027,-3.013604 -0.100542,-6.019271 c -0.0053,-0.370417 0,-0.727604 0,-1.166812 z"
       id="path152"
       style="fill:#0b1518;stroke-width:0.264583" />
    <path
       class="cls-16"
       d="m 46.40368,76.424796 c 0.28575,-0.03969 0.492125,-0.08996 0.701145,-0.0979 a 0.57414583,0.57414583 0 0 1 0.605896,0.529167 0.47889583,0.47889583 0 0 1 -0.473604,0.49477 c -0.246062,0.04233 -0.486833,0.10848 -0.79375,0.177271 0.04762,0.875771 0.0926,1.735667 0.140229,2.595563 0.04762,0.859896 0.0926,1.643062 0.137584,2.465916 0,0.148167 0,0.293688 0,0.441855 a 0.46302083,0.46302083 0 0 1 -0.420688,0.47625 0.49741666,0.49741666 0 0 1 -0.584729,-0.365125 5.4107291,5.4107291 0 0 1 -0.0979,-0.878417 c -0.06615,-1.264708 -0.119062,-2.529417 -0.185208,-3.794125 0,-0.227542 -0.05027,-0.455083 -0.08202,-0.735542 -0.367771,0.06879 -0.690563,0.137584 -1.013354,0.1905 a 2.397125,2.397125 0 0 1 -0.563563,0.05556 0.50535416,0.50535416 0 0 1 -0.47625,-0.505354 0.43391666,0.43391666 0 0 1 0.431271,-0.52123 c 0.513292,-0.108479 1.029229,-0.206375 1.5875,-0.3175 0,-0.264583 0,-0.505354 0,-0.751416 -0.0344,-0.717021 -0.08202,-1.431396 -0.111125,-2.148417 -0.02117,-0.478896 0.15875,-0.73025 0.492125,-0.724958 0.333375,0.0053 0.529167,0.264583 0.552979,0.719667 0.04233,0.714375 0.07673,1.431395 0.116417,2.148416 0.0079,0.177271 0.02117,0.343958 0.03704,0.545042 z"
       id="path154"
       style="fill:#081013;stroke-width:0.264583" />
    <path
       class="cls-20"
       d="m 41.971909,80.896254 c -0.15875,0.187854 -0.264584,0.306917 -0.359834,0.431271 -0.529166,0.672042 -1.246187,0.838729 -2.045229,0.685271 -0.719666,-0.134938 -1.119187,-0.635 -1.322916,-1.304396 a 4.9344791,4.9344791 0 0 1 -0.06085,-2.38125 c 0.07937,-0.423333 0.264584,-0.552979 0.597959,-0.486833 a 0.55827083,0.55827083 0 0 1 0.436562,0.66675 c -0.0291,0.39952 -0.07144,0.79375 -0.09525,1.195916 a 1.7806458,1.7806458 0 0 0 0.04233,0.502709 c 0.08731,0.354541 0.203729,0.711729 0.627062,0.79375 a 0.99747915,0.99747915 0 0 0 1.058333,-0.383646 2.9104166,2.9104166 0 0 0 0.404813,-1.039813 9.474729,9.474729 0 0 0 0.05292,-1.198562 c 0.02117,-0.359834 0.17727,-0.529167 0.470958,-0.566209 a 0.50799999,0.50799999 0 0 1 0.592667,0.4445 q 0.545041,2.016125 1.058333,4.037542 c 0.103187,0.407458 -0.05292,0.664104 -0.383646,0.732896 -0.330729,0.06879 -0.500062,-0.08467 -0.624417,-0.478896 -0.08202,-0.264583 -0.142875,-0.529167 -0.216958,-0.79375 -0.07408,-0.264583 -0.134937,-0.513292 -0.232833,-0.85725 z"
       id="path156"
       style="fill:#081215;stroke-width:0.264583" />
    <path
       class="cls-18"
       d="m 91.917304,83.224587 a 2.0611041,2.0611041 0 0 1 -1.820333,-1.322916 c -0.127,-0.394229 -0.02117,-0.695854 0.301625,-0.777875 a 0.46566666,0.46566666 0 0 1 0.629708,0.264583 2.6775833,2.6775833 0 0 0 0.148167,0.346604 0.68262499,0.68262499 0 0 0 0.97102,0.296334 0.69320832,0.69320832 0 0 0 0.312209,-1.013355 2.5029583,2.5029583 0 0 0 -0.584729,-0.55827 C 91.515137,80.171296 91.105033,79.930525 90.77695,79.613025 a 1.4710833,1.4710833 0 0 1 -0.354542,-1.690688 1.4261041,1.4261041 0 0 1 1.397,-0.918104 1.7145,1.7145 0 0 1 1.545167,0.833438 0.43656249,0.43656249 0 0 1 -0.08202,0.621771 0.50799999,0.50799999 0 0 1 -0.687917,0.03969 3.6697708,3.6697708 0 0 1 -0.246062,-0.28575 C 92.184533,78.0414 92.012554,77.874712 91.747971,78.030817 a 0.57149999,0.57149999 0 0 0 -0.240771,0.71702 1.8362083,1.8362083 0 0 0 0.47625,0.563563 c 0.328083,0.264583 0.717021,0.457729 1.026583,0.738187 a 1.7647708,1.7647708 0 0 1 -0.264583,2.897188 4.5746458,4.5746458 0 0 1 -0.828146,0.277812 z"
       id="path158"
       style="fill:#081012;stroke-width:0.264583" />
    <path
       class="cls-16"
       d="m 60.606513,79.599796 c 0.111125,-0.418042 0.264583,-1.058334 0.457729,-1.669521 a 0.61383333,0.61383333 0 0 1 0.388937,-0.34925 3.175,3.175 0 0 1 1.852084,0.134937 2.3997708,2.3997708 0 0 1 1.423458,2.38125 2.1801666,2.1801666 0 0 1 -1.852083,1.94998 1.7965208,1.7965208 0 0 1 -1.799167,-0.79375 C 60.762617,80.830108 60.6462,80.343275 60.606513,79.599796 Z m 1.383771,-1.058334 a 2.6458333,2.6458333 0 0 0 -0.264584,1.611313 0.97102082,0.97102082 0 0 0 0.809625,0.859896 1.0345208,1.0345208 0 0 0 1.042458,-0.669396 1.254125,1.254125 0 0 0 -0.629708,-1.608667 4.5614166,4.5614166 0 0 0 -0.963083,-0.193146 z"
       id="path160"
       style="fill:#081013;stroke-width:0.264583" />
    <path
       class="cls-17"
       d="m 58.809992,79.78765 q 0.127,-0.989542 0.264583,-1.971146 c 0.0344,-0.264583 0.05821,-0.505354 0.111125,-0.751417 0.08731,-0.410104 0.304271,-0.579437 0.642938,-0.529166 0.338666,0.05027 0.431271,0.219604 0.378354,0.66675 -0.137583,1.172104 -0.288396,2.344208 -0.433917,3.516312 a 11.832167,11.832167 0 0 1 -0.171979,1.190625 1.0583333,1.0583333 0 0 1 -0.314854,0.510646 0.365125,0.365125 0 0 1 -0.595313,-0.08731 2.1378333,2.1378333 0 0 1 -0.17727,-0.336021 c -0.645584,-1.468438 -1.285875,-2.939521 -1.934105,-4.405313 -0.129645,-0.288396 -0.201083,-0.560916 0.05027,-0.817562 0.291042,-0.296334 0.60325,-0.238125 0.79375,0.174625 0.288396,0.611187 0.547688,1.235604 0.820209,1.852083 0.150812,0.338667 0.306916,0.677333 0.46302,1.013354 z"
       id="path162"
       style="fill:#081316;stroke-width:0.264583" />
    <path
       class="cls-17"
       d="m 88.665575,81.8514 c 0,0.293687 0,0.590021 0,0.883708 0,0.41275 -0.161396,0.621771 -0.455083,0.642938 a 0.57943749,0.57943749 0 0 1 -0.579438,-0.613834 c -0.04763,-0.862541 -0.08731,-1.725083 -0.124354,-2.59027 Q 87.3797,77.332317 87.263283,74.4854 c -0.02381,-0.545042 0.127,-0.79375 0.452438,-0.828146 0.325437,-0.0344 0.568854,0.243417 0.595312,0.79375 0.08996,1.939396 0.169334,3.876146 0.264584,5.820833 0.02381,0.529167 0.05821,1.058334 0.08731,1.5875 z"
       id="path164"
       style="fill:#081316;stroke-width:0.264583" />
    <path
       class="cls-16"
       d="m 27.306055,80.250671 a 2.8866041,2.8866041 0 0 1 2.995083,-2.910417 0.54768749,0.54768749 0 0 1 0.574146,0.529167 c 0,0.322791 -0.156104,0.478896 -0.582083,0.494771 a 2.301875,2.301875 0 0 0 -1.254125,0.375708 1.4657916,1.4657916 0 0 0 -0.605896,1.7145 1.36525,1.36525 0 0 0 2.338916,0.529167 c 0.08731,-0.08996 0.150813,-0.20373 0.23548,-0.296334 a 0.44185416,0.44185416 0 0 1 0.624416,-0.08467 0.46831249,0.46831249 0 0 1 0.214313,0.648229 1.8706041,1.8706041 0 0 1 -0.410104,0.552979 2.4262291,2.4262291 0 0 1 -2.706688,0.441854 2.3203958,2.3203958 0 0 1 -1.423458,-1.994958 z"
       id="path166"
       style="fill:#081013;stroke-width:0.264583" />
    <path
       class="cls-16"
       d="m 66.353263,77.985837 c 0.182562,-0.11377 0.33602,-0.214312 0.497416,-0.306916 a 1.920875,1.920875 0 0 1 1.762125,-0.105834 0.45772916,0.45772916 0 0 1 0.330729,0.592667 0.56356249,0.56356249 0 0 1 -0.695854,0.373063 c -0.844021,-0.174625 -1.344083,0.140229 -1.4605,1.00277 a 7.3474791,7.3474791 0 0 0 0.04233,1.322917 c 0,0.124354 0.06614,0.246063 0.06614,0.370417 a 0.52916666,0.52916666 0 0 1 -0.486833,0.563562 0.43920833,0.43920833 0 0 1 -0.529167,-0.410104 c -0.0926,-0.455083 -0.166687,-0.912812 -0.264583,-1.367896 -0.134937,-0.724958 -0.264583,-1.447271 -0.402167,-2.174875 a 0.67204166,0.67204166 0 0 1 0.05292,-0.478896 0.94985415,0.94985415 0 0 1 0.515938,-0.264583 c 0.20902,-0.04233 0.346604,0.105833 0.39952,0.320146 0.05292,0.214312 0.111125,0.341312 0.17198,0.563562 z"
       id="path168"
       style="fill:#081013;stroke-width:0.264583" />
  </g>
</svg>
