<?xml version="1.0" encoding="UTF-8" standalone="no"?>
<svg
   viewBox="0 0 546.42 775.2"
   version="1.1"
   id="svg2401"
   sodipodi:docname="unknown.svg"
   inkscape:version="1.1.2 (b8e25be833, 2022-02-05)"
   xmlns:inkscape="http://www.inkscape.org/namespaces/inkscape"
   xmlns:sodipodi="http://sodipodi.sourceforge.net/DTD/sodipodi-0.dtd"
   xmlns:xlink="http://www.w3.org/1999/xlink"
   xmlns="http://www.w3.org/2000/svg"
   xmlns:svg="http://www.w3.org/2000/svg"
   xmlns:rdf="http://www.w3.org/1999/02/22-rdf-syntax-ns#"
   xmlns:cc="http://creativecommons.org/ns#"
   xmlns:dc="http://purl.org/dc/elements/1.1/">
  <sodipodi:namedview
     id="namedview2403"
     pagecolor="#ffffff"
     bordercolor="#111111"
     borderopacity="1"
     inkscape:pageshadow="0"
     inkscape:pageopacity="0"
     inkscape:pagecheckerboard="1"
     showgrid="false"
     inkscape:zoom="1.0758514"
     inkscape:cx="89.696402"
     inkscape:cy="387.6"
     inkscape:window-width="1920"
     inkscape:window-height="1017"
     inkscape:window-x="-8"
     inkscape:window-y="-8"
     inkscape:window-maximized="1"
     inkscape:current-layer="Ebene_1" />
  <defs
     id="defs1209">
    <linearGradient
       inkscape:collect="always"
       id="linearGradient17003">
      <stop
         style="stop-color:#000000;stop-opacity:1;"
         offset="0"
         id="stop16999" />
      <stop
         style="stop-color:#000000;stop-opacity:0;"
         offset="1"
         id="stop17001" />
    </linearGradient>
    <style
       id="style1207">.cls-1{fill:#1d1e1c;}.cls-2{fill:#181816;}.cls-3{fill:#7c81a7;}.cls-4{fill:#7d83ab;}.cls-5{fill:#7582ac;}.cls-6{fill:#1e1f1c;}.cls-7{fill:#1e201d;}.cls-8{fill:#1a1a16;}.cls-9{fill:#1b1a18;}.cls-10{fill:#68657b;}.cls-11{fill:#4f586f;}.cls-12{fill:#7986b1;}.cls-13{fill:#7c83aa;}.cls-14{fill:#7e84ac;}.cls-15{fill:#7d83aa;}.cls-16{fill:#7f86af;}.cls-17{fill:#8087b1;}.cls-18{fill:#598a4a;}.cls-19{fill:#cbcfe5;}.cls-20{fill:#cbd1e9;}.cls-21{fill:#657787;}.cls-22{fill:#d0d6ec;}.cls-23{fill:#ced1e8;}.cls-24{fill:#cdd0e7;}.cls-25{fill:#cfd2e9;}.cls-26{fill:#cbd1ea;}.cls-27{fill:#171311;}.cls-28{fill:#1a1a17;}.cls-29{fill:#5c6e7b;}.cls-30{fill:#161613;}.cls-31{fill:#7b96a9;}.cls-32{fill:#181714;}.cls-33{fill:#b3a6ac;}.cls-34{fill:#d1d4ea;}.cls-35{fill:#303445;}.cls-36{fill:#2f3444;}.cls-37{fill:#303444;}.cls-38{fill:#c8d1ea;}.cls-39{fill:#c6d3eb;}.cls-40{fill:#c4d0ea;}.cls-41{fill:#2f2e3c;}.cls-42{fill:#2b2f3f;}.cls-43{fill:#2b3040;}.cls-44{fill:#1e1e1c;}.cls-45{fill:#c5d2eb;}.cls-46{fill:#9ea0ad;}.cls-47{fill:#a0a3b4;}.cls-48{fill:#b7b7c7;}.cls-49{fill:#a19fae;}.cls-50{fill:#8a8993;}.cls-51{fill:#8d8f9c;}.cls-52{fill:#a3a6b6;}.cls-53{fill:#666e7a;}.cls-54{fill:#b7b9ca;}.cls-55{fill:#1d1a18;}.cls-56{fill:#1e1f1d;}.cls-57{fill:#1f1f1d;}.cls-58{fill:#1f201e;}.cls-59{fill:#20201f;}.cls-60{fill:#1f201f;}.cls-61{fill:#212121;}.cls-62{fill:#222322;}.cls-63{fill:#252424;}.cls-64{fill:#232422;}.cls-65{fill:#cfd3ea;}.cls-66{fill:#ced2ea;}.cls-67{fill:#82a4c2;}.cls-68{fill:#282939;}.cls-69{fill:#877582;}.cls-70{fill:#2f3141;}.cls-71{fill:#cfd2e8;}.cls-72{fill:#2a2c3c;}.cls-73{fill:#7594b0;}.cls-74{fill:#958491;}.cls-75{fill:#2e2f3f;}.cls-76{fill:#e9e77b;}.cls-77{fill:#cacb62;}.cls-78{fill:#599d43;}.cls-79{fill:#bcbd57;}.cls-80{fill:#4f8b3b;}.cls-81{fill:#a6a750;}.cls-82{fill:#f4ed89;}.cls-83{fill:#f3ed85;}.cls-84{fill:#86bf60;}.cls-85{fill:#85bf60;}.cls-86{fill:#bcbd58;}.cls-87{fill:#f3ec85;}.cls-88{fill:#85bf5f;}.cls-89{fill:#f4f1b1;}.cls-90{fill:#4f8a3b;}.cls-91{fill:#f3f1b3;}.cls-92{fill:#61aa49;}.cls-93{fill:#f3f1b2;}.cls-94{fill:#a6a74f;}.cls-95{fill:#74b959;}.cls-96{fill:#e8e77b;}.cls-97{fill:#579d43;}.cls-98{fill:#f2f1b2;}.cls-99{fill:#e8e67a;}.cls-100{fill:#85be5f;}.cls-101{fill:#e7e67d;}.cls-102{fill:#f3f1b1;}.cls-103{fill:#62aa4a;}.cls-104{fill:#e8e67b;}.cls-105{fill:#bbbc57;}.cls-106{fill:#73b958;}.cls-107{fill:#e3e478;}.cls-108{fill:#61a94a;}.cls-109{fill:#61a949;}.cls-110{fill:#e7e67a;}.cls-111{fill:#e7e57a;}.cls-112{fill:#84bd5f;}.cls-113{fill:#f3ec84;}.cls-114{fill:#589b43;}.cls-115{fill:#e0e078;}.cls-116{fill:#cccd65;}.cls-117{fill:#a6a850;}.cls-118{fill:#e6e579;}.cls-119{fill:#a4a54f;}.cls-120{fill:#d5d671;}.cls-121{fill:#d7d973;}.cls-122{fill:#dee07a;}.cls-123{fill:#a5a650;}.cls-124{fill:#d1d06d;}.cls-125{fill:#e0df77;}.cls-126{fill:#d6d871;}.cls-127{fill:#73b759;}.cls-128{fill:#579942;}.cls-129{fill:#dadb75;}.cls-130{fill:#e4e478;}.cls-131{fill:#569942;}.cls-132{fill:#dede7f;}.cls-133{fill:#e3e177;}.cls-134{fill:#e5e279;}.cls-135{fill:#518c3f;}.cls-136{fill:#c9c768;}.cls-137{fill:#6f6c49;}.cls-138{fill:#abb156;}.cls-139{fill:#514d33;}.cls-140{fill:#666446;}.cls-141{fill:#c3c467;}.cls-142{fill:#6d6d44;}.cls-143{fill:#c5c769;}.cls-144{fill:#d4d473;}.cls-145{fill:#efeba9;}.cls-146{fill:#acad55;}.cls-147{fill:#c1c266;}.cls-148{fill:#569a42;}.cls-149{fill:#70704c;}.cls-150{fill:#549540;}.cls-151{fill:#549441;}.cls-152{fill:#64895e;}.cls-153{fill:#d6d66d;}.cls-154{fill:#589842;}.cls-155{fill:#dedd76;}.cls-156{fill:#c6c669;}.cls-157{fill:#6cad55;}.cls-158{fill:#cbcc69;}.cls-159{fill:#6b7b71;}.cls-160{fill:#529140;}.cls-161{fill:#6e6e78;}.cls-162{fill:#313e2c;}.cls-163{fill:#a5ac62;}.cls-164{fill:#a4a4b3;}.cls-165{fill:#8e954c;}.cls-166{fill:#61636b;}.cls-167{fill:#323329;}.cls-168{fill:#686b53;}.cls-169{fill:#68643b;}.cls-170{fill:#589c47;}.cls-171{fill:#6fa850;}.cls-172{fill:#8f909e;}.cls-173{fill:#424430;}.cls-174{fill:#5e5f67;}.cls-175{fill:#575960;}.cls-176{fill:#9395a4;}.cls-177{fill:#484834;}.cls-178{fill:#c4ca69;}.cls-179{fill:#8c8b47;}.cls-180{fill:#d7d571;}.cls-181{fill:#323334;}.cls-182{fill:#8c8e9c;}.cls-183{fill:#64636b;}.cls-184{fill:#a4a3af;}.cls-185{fill:#868793;}.cls-186{fill:#707042;}.cls-187{fill:#3f3d2d;}.cls-188{fill:#5f6043;}.cls-189{fill:#71737e;}.cls-190{fill:#78757f;}.cls-191{fill:#b1b1c3;}.cls-192{fill:#98b267;}.cls-193{fill:#4d4e4d;}.cls-194{fill:#6f9d4e;}.cls-195{fill:#aeadbd;}.cls-196{fill:#acabbb;}.cls-197{fill:#797b86;}.cls-198{fill:#648362;}.cls-199{fill:#3f4145;}.cls-200{fill:#9393a0;}.cls-201{fill:#516164;}.cls-202{fill:#869899;}.cls-203{fill:#b5b467;}.cls-204{fill:#4a4b50;}.cls-205{fill:#8c8b55;}.cls-206{fill:#8e93a0;}.cls-207{fill:#666771;}.cls-208{fill:#494d37;}.cls-209{fill:#788252;}.cls-210{fill:#8a8f56;}.cls-211{fill:#bcc164;}.cls-212{fill:#818452;}.cls-213{fill:#d9db79;}.cls-214{fill:#91909d;}.cls-215{fill:#61aa4a;}.cls-216{fill:#62a94a;}.cls-217{fill:#63a84a;}.cls-218{fill:#669056;}.cls-219{fill:#549642;}.cls-220{fill:#608e4b;}.cls-221{fill:#74ac56;}.cls-222{fill:#333436;}.cls-223{fill:#829f7b;}.cls-224{fill:#599c43;}.cls-225{fill:#6da250;}.cls-226{fill:#78b25a;}.cls-227{fill:#779384;}.cls-228{fill:#6c9073;}.cls-229{fill:#6f9477;}.cls-230{fill:#545a82;}.cls-231{fill:#555b82;}.cls-232{fill:#a72a2c;}.cls-233{fill:#c52e2e;}.cls-234{fill:#932322;}.cls-235{fill:#c02e2d;}.cls-236{fill:#a52b2c;}.cls-237{fill:#c22e2e;}.cls-238{fill:#9b2c2c;}.cls-239{fill:#a92828;}.cls-240{fill:#7884bc;}.cls-241{fill:#555b83;}.cls-242{fill:#932222;}.cls-243{fill:#c42e2e;}.cls-244{fill:#c32e2e;}.cls-245{fill:#a72b2c;}.cls-246{fill:#9a2626;}.cls-247{fill:#9d2a2b;}.cls-248{fill:#cbcde4;}.cls-249{fill:#c7cae0;}.cls-250{fill:#cbcee4;}.cls-251{fill:#cacce3;}.cls-252{fill:#030404;}.cls-253{fill:#040405;}.cls-254{fill:#030405;}.cls-255{fill:#040406;}.cls-256{fill:#040506;}.cls-257{fill:#050506;}.cls-258{fill:#060608;}.cls-259{fill:#050607;}.cls-260{fill:#090a0d;}.cls-261{fill:#0d0d11;}.cls-262{fill:#030505;}.cls-263{fill:#d0d0e6;}.cls-264{fill:#040507;}.cls-265{fill:#050608;}.cls-266{fill:#08090b;}.cls-267{fill:#5f6572;}.cls-268{fill:#040505;}.cls-269{fill:#d1d1e6;}.cls-270{fill:#040607;}.cls-271{fill:#0c0b0e;}.cls-272{fill:#0f0e12;}.cls-273{fill:#090c0f;}.cls-274{fill:#0d0e11;}.cls-275{fill:#ddde6d;}.cls-276{fill:#f8f092;}.cls-277{fill:#1f201c;}.cls-278{fill:#20201d;}.cls-279{fill:#f7ef92;}.cls-280{fill:#23241f;}.cls-281{fill:#bbbb57;}.cls-282{fill:#6c6845;}.cls-283{fill:#706d47;}.cls-284{fill:#b8b565;}.cls-285{fill:#726d46;}.cls-286{fill:#56543e;}.cls-287{fill:#737348;}.cls-288{fill:#515239;}.cls-289{fill:#6c6b46;}.cls-290{fill:#8c8755;}.cls-291{fill:#a99954;}.cls-292{fill:#6a6a45;}.cls-293{fill:#e4e378;}.cls-294{fill:#f2f0b1;}.cls-295{fill:#d2d366;}.cls-296{fill:#2e2f28;}.cls-297{fill:#60a949;}.cls-298{fill:#569541;}.cls-299{fill:#e8e678;}.cls-300{fill:#baba56;}.cls-301{fill:#d3d468;}.cls-302{fill:#e4e476;}.cls-303{fill:#e7e679;}.cls-304{fill:#74b958;}.cls-305{fill:#839691;}.cls-306{fill:#789b7c;}.cls-307{fill:#f3ed84;}.cls-308{fill:#f3f1b0;}.cls-309{fill:#e0e06f;}.cls-310{fill:#d9d96b;}.cls-311{fill:#dbdc77;}.cls-312{fill:#7db459;}.cls-313{fill:#b3b454;}.cls-314{fill:#73b858;}.cls-315{fill:#787a4a;}.cls-316{fill:#68ad4f;}.cls-317{fill:#e6e678;}.cls-318{fill:#e5e578;}.cls-319{fill:#e5e577;}.cls-320{fill:#e7e678;}.cls-321{fill:#6a6a48;}.cls-322{fill:#ebe87c;}.cls-323{fill:#c0bf6b;}.cls-324{fill:#9a9b5d;}.cls-325{fill:#567450;}.cls-326{fill:#374131;}.cls-327{fill:#8f974d;}.cls-328{fill:#6a6243;}.cls-329{fill:#59a044;}.cls-330{fill:#6b74a5;}.cls-331{fill:#5e648f;}.cls-332{fill:#ba2d2d;}.cls-333{fill:#cbcee5;}.cls-334{fill:#c9cce2;}.cls-335{fill:#cacde4;}.cls-336{fill:#c7cbe1;}.cls-337{fill:#aeb5cb;}.cls-338{fill:#c1c4d9;}.cls-339{fill:#c8cce2;}.cls-340{fill:#c3c8dd;}.cls-341{fill:#c5c8de;}.cls-342{fill:#c7cce1;}.cls-343{fill:#ece97f;}.cls-344{fill:#e5e576;}.cls-345{fill:#ebe87a;}.cls-346{fill:#c5c65f;}.cls-347{fill:#73aa54;}.cls-348{fill:#1d1f1d;}.cls-349{fill:#75b85a;}.cls-350{fill:#5a9440;}.cls-351{fill:#78a174;}.cls-352{fill:#7ca88c;}.cls-353{fill:#71a56c;}.cls-354{fill:#6b76a8;}.cls-355{fill:#595e87;}.cls-356{fill:#f5ee8a;}.cls-357{fill:#cccfe2;}.cls-358{fill:#cccee3;}.cls-359{fill:#fff;}</style>
    <linearGradient
       inkscape:collect="always"
       xlink:href="#linearGradient17003"
       id="linearGradient17005"
       x1="87.69355"
       y1="389.18326"
       x2="325.5373"
       y2="389.18326"
       gradientUnits="userSpaceOnUse" />
  </defs>
  <title
     id="title1211">kondom svg freigestellt</title>
  <g
     id="Ebene_1"
     data-name="Ebene 1">
    <path
       class="cls-1"
       d="M45.05,807.7c-7.24.2-14.73-5.7-15.83-13.92a27,27,0,0,1-.18-3.59q0-369.72,0-739.42a18.72,18.72,0,0,1,1.38-8.21c3-6.31,8.08-9.44,14.94-9.91.56,0,1.12,0,1.68,0H557c3.73,0,7.3.47,10.54,2.52a16.23,16.23,0,0,1,7.86,13.52c0,.8,0,1.6,0,2.4v738a23,23,0,0,1-1,7.81c-2.13,6-8.16,10.79-14.42,10.83a6.57,6.57,0,0,0-2.61-.18H47.65A6.54,6.54,0,0,0,45.05,807.7Z"
       transform="translate(-29.03 -32.63)"
       id="path1213" />
    <path
       class="cls-2"
       d="M45.05,807.7a1.25,1.25,0,0,1,1.06-.42H48q254.52,0,509.05,0c1,0,2.08-.4,3,.4-1,0-1.92.09-2.88.09H156.4l-108.24,0C47.12,807.83,46.09,807.75,45.05,807.7Z"
       transform="translate(-29.03 -32.63)"
       id="path1215" />
    <path
       class="cls-3"
       d="M558.14,41.78c4.7.08,8.12,3.34,8.18,8.48.07,5.76,0,11.52,0,17.28V168.79q0,275,0,550,0,35.16,0,70.31a14,14,0,0,1-.39,4.27c-.93,2.92-2.75,4.8-5.87,5.24a6.76,6.76,0,0,0-2.61-.17H47.19a7,7,0,0,0-2.61.17c-4.11-.76-6.29-3.3-6.37-7.39,0-.64,0-1.28,0-1.92V51.37c0-.72,0-1.44,0-2.16a7.28,7.28,0,0,1,6.93-7.46c.8-.08,1.6,0,2.4,0q224.37,0,448.73,0c.8,0,1.6,0,2.4.07a4,4,0,0,0,1.65.15h56.15A4.28,4.28,0,0,0,558.14,41.78Z"
       transform="translate(-29.03 -32.63)"
       id="path1217" />
    <path
       class="cls-4"
       d="M44.58,798.57a1.35,1.35,0,0,1,1.08-.41h1.92q254.75,0,509.48,0c1,0,2.09-.38,3,.39-.88,0-1.76.11-2.63.11H47.21C46.33,798.68,45.46,798.61,44.58,798.57Z"
       transform="translate(-29.03 -32.63)"
       id="path1219" />
    <path
       class="cls-5"
       d="M558.14,41.78c-.69.61-1.53.37-2.3.37H501c-.78,0-1.61.25-2.29-.38.63,0,1.27-.1,1.91-.1h55.64C556.86,41.67,557.5,41.74,558.14,41.78Z"
       transform="translate(-29.03 -32.63)"
       id="path1221" />
    <path
       class="cls-1"
       d="M67.62,777.94c-6.29-.56-13-6.35-12.89-14.05,0-1.35,0-2.71,0-4.07q0-114.44,0-228.86,0-26.26,0-52.54C54.74,470.27,59,465,67,463a2.88,2.88,0,0,0,.63-.32c.81-.52,1.71-.26,2.57-.26q37.33,0,74.69,0H534c1,0,2.07-.32,3,.31.5.48,1.2.39,1.8.59,6.35,2.21,10.16,7.51,10.61,14.82.05.88,0,1.76,0,2.64q0,119.07,0,238.16,0,21.1,0,42.21a27.14,27.14,0,0,1-.45,4.77,15,15,0,0,1-12.93,12,43.38,43.38,0,0,1-5.47.27H73.09A43.38,43.38,0,0,1,67.62,777.94Z"
       transform="translate(-29.03 -32.63)"
       id="path1223" />
    <path
       class="cls-6"
       d="M68.08,381.53c-.93-.23-1.86-.44-2.78-.7A14.37,14.37,0,0,1,54.74,367c0-.56,0-1.12,0-1.68q0-146,0-292a18.18,18.18,0,0,1,.66-5.7,13.92,13.92,0,0,1,11.35-10.1,2.66,2.66,0,0,0,1.35-.4c.72-.56,1.55-.29,2.32-.29H532.24c.78,0,1.6-.25,2.33.27a3.49,3.49,0,0,0,1.61.4A14.16,14.16,0,0,1,548.6,71.16c0,.88,0,1.76,0,2.64V342c0,7.51,0,15,0,22.54a27.17,27.17,0,0,1-.28,4.78c-1.14,6.32-5.31,10.49-11.64,11.85a8.78,8.78,0,0,0-1.13.37,5.47,5.47,0,0,1-2.6.21H70.68A5.47,5.47,0,0,1,68.08,381.53Z"
       transform="translate(-29.03 -32.63)"
       id="path1225" />
    <path
       class="cls-7"
       d="M536.06,389.74a12.82,12.82,0,0,1,12.4,12.52c.16,13.11.13,26.24,0,39.35A13,13,0,0,1,536,454.41c-1,.06-1.92,0-2.88,0q-231.72,0-463.42,0c-3.46,0-6.68-.5-9.49-2.64a12.37,12.37,0,0,1-5.2-9.57c0-.56-.05-1.12-.05-1.68,0-12.4,0-24.8,0-37.19,0-6.25,2.91-10.74,8.22-12.86a7.43,7.43,0,0,1,3.94-.8,62.6,62.6,0,0,1,7.87-.25H528.67A58.76,58.76,0,0,1,536.06,389.74Z"
       transform="translate(-29.03 -32.63)"
       id="path1227" />
    <path
       class="cls-8"
       d="M536.06,389.74a1.39,1.39,0,0,1-1.07.42h-2.16q-231.24,0-462.46,0c-1.08,0-2.25.41-3.23-.41a1.26,1.26,0,0,1,.43-.13,10.46,10.46,0,0,1,4.27-.39H532.08a8.33,8.33,0,0,1,3.54.4A1.33,1.33,0,0,1,536.06,389.74Z"
       transform="translate(-29.03 -32.63)"
       id="path1229" />
    <path
       class="cls-9"
       d="M67.62,777.94a1.36,1.36,0,0,1,1.08-.42h2.16q231,0,462,0c1.08,0,2.25-.4,3.24.4a1,1,0,0,1-.41.13c-1.28.7-2.67.39-4,.39q-191.19,0-382.38,0h-78c-1.1,0-2.25.22-3.29-.39A1.12,1.12,0,0,1,67.62,777.94Z"
       transform="translate(-29.03 -32.63)"
       id="path1231" />
    <path
       class="cls-10"
       d="M535.62,389.6c-.79,0-1.59.08-2.39.08H70.69c-1,0-2.08-.06-3.12-.08l.52-.41a5.47,5.47,0,0,1,2.6-.21H532.52a5.48,5.48,0,0,1,2.6.21Z"
       transform="translate(-29.03 -32.63)"
       id="path1233" />
    <path
       class="cls-11"
       d="M68,778.08l4.32,0L533,778c.87,0,1.75,0,2.63.07a2.2,2.2,0,0,0-.06.37c-.72.5-1.55.26-2.33.26H70.42a3.92,3.92,0,0,1-2.34-.25A2.38,2.38,0,0,0,68,778.08Z"
       transform="translate(-29.03 -32.63)"
       id="path1235" />
    <path
       class="cls-12"
       d="M68.08,381.53l4.08,0H532l3.6,0a1.19,1.19,0,0,1-1.05.47H532.4q-230.56,0-461.12,0C70.22,382,69,382.44,68.08,381.53Z"
       transform="translate(-29.03 -32.63)"
       id="path1237" />
    <path
       class="cls-13"
       d="M68.08,778.45c9.76,0,19.52.06,29.28.06l434.88,0c1.12,0,2.23,0,3.35,0a1.09,1.09,0,0,1-1,.52h-1.92q-230.82,0-461.65,0C70,778.94,68.93,779.4,68.08,778.45Z"
       transform="translate(-29.03 -32.63)"
       id="path1239" />
    <path
       class="cls-15"
       d="M535.12,389.19h-467a1.18,1.18,0,0,1,1-.47h1.92q230.55,0,461.11,0C533.14,388.74,534.24,388.31,535.12,389.19Z"
       transform="translate(-29.03 -32.63)"
       id="path1243" />
    <path
       class="cls-16"
       d="M537,462.73l-7.43,0H148c-1,0-2.07-.08-3.11-.11-.15-.1-.21-.19-.15-.29s.1-.14.15-.14q194.63,0,389.24,0C535.09,462.18,536.22,461.7,537,462.73Z"
       transform="translate(-29.03 -32.63)"
       id="path1245" />
    <path
       class="cls-17"
       d="M144.88,462.16v.43c-1,0-1.92.07-2.88.07l-74.39,0c.76-.89,1.79-.5,2.7-.5Q107.6,462.15,144.88,462.16Z"
       transform="translate(-29.03 -32.63)"
       id="path1247" />
    <path
       class="cls-19"
       d="M535.59,468.45a8.61,8.61,0,0,1,7.66,7.64,41.64,41.64,0,0,0,0,4.74q0,139.49,0,279a44.09,44.09,0,0,0,0,4.74c0,4.29-4.77,8.46-9.11,8.1a7,7,0,0,0-2.61-.17H73.1a7,7,0,0,0-2.61.17c-5.31.09-9-2.72-10-7.62.12-1.67-.06-3.33-.06-5q0-139.24,0-278.49c0-1.82.4-3.64.06-5.46a8.63,8.63,0,0,1,7.18-7.62,45.54,45.54,0,0,1,6.91-.27H529.65A36.86,36.86,0,0,1,535.59,468.45Z"
       transform="translate(-29.03 -32.63)"
       id="path1251" />
    <path
       class="cls-20"
       d="M535.59,468.45a1.36,1.36,0,0,1-1.07.43H532.6q-231,0-462,0c-1,0-2.08.36-3-.39a.75.75,0,0,1,.41-.14,10.09,10.09,0,0,1,4.26-.4H531.66c1.18,0,2.41-.24,3.53.38A.65.65,0,0,1,535.59,468.45Z"
       transform="translate(-29.03 -32.63)"
       id="path1253" />
    <path
       class="cls-21"
       d="M535.19,468.31c-.87,0-1.75.09-2.63.09H71.86c-1.27,0-2.55,0-3.83-.07l.54-.43a5.58,5.58,0,0,1,2.6-.2H532.53a5,5,0,0,1,2.59.23A2.53,2.53,0,0,1,535.19,468.31Z"
       transform="translate(-29.03 -32.63)"
       id="path1255" />
    <path
       class="cls-2"
       d="M535.12,467.93H69.53l-1,0a1.18,1.18,0,0,1,1-.46h1.92q230.33,0,460.64,0C533.15,467.46,534.26,467,535.12,467.93Z"
       transform="translate(-29.03 -32.63)"
       id="path1257" />
    <path
       class="cls-22"
       d="M70.49,772.65a1.35,1.35,0,0,1,1.08-.41h1.92q228.83,0,457.65,0c1,0,2.09-.38,3,.39-.87,0-1.75.09-2.63.09H73.12C72.25,772.74,71.37,772.68,70.49,772.65Z"
       transform="translate(-29.03 -32.63)"
       id="path1259" />
    <path
       class="cls-23"
       d="M543.25,764.55c-.82-.89-.43-2-.43-3q0-52.16,0-104.32,0-89.09,0-178.18c0-1-.39-2.09.43-3a.74.74,0,0,1,.08.73,7,7,0,0,1,.18,2.61q0,140.85,0,281.7a6.4,6.4,0,0,1-.18,2.61C543.3,764,543.27,764.28,543.25,764.55Z"
       transform="translate(-29.03 -32.63)"
       id="path1263" />
    <path
       class="cls-19"
       d="M543.32,763.74c0-1.2,0-2.4,0-3.6q0-140.1,0-280.2c0-1,0-2.08.05-3.12a7.45,7.45,0,0,1,.22,3.08q0,104,0,208.06,0,36.24.07,72.48A7.26,7.26,0,0,1,543.32,763.74Z"
       transform="translate(-29.03 -32.63)"
       id="path1265" />
    <path
       class="cls-24"
       d="M68.11,376.62a24.51,24.51,0,0,1-3.53-1.31c-2.59-1.54-4.39-3.61-4.63-6.76.14-1.66,0-3.32,0-5q0-144.28,0-288.58c0-1.66.18-3.32,0-5,.64-4.19,3.24-6.51,7.21-7.53a64.53,64.53,0,0,1,10-.34q222.27,0,444.55,0c4.78,0,9.56-.26,14.33.31C541,63.65,543.67,67,543.74,72V352.88c0,4.08,0,8.15,0,12.23a16.63,16.63,0,0,1-.38,4,9,9,0,0,1-7.22,7.15,11.25,11.25,0,0,0-1.11.39,3.92,3.92,0,0,1-2.34.25H70.4C69.64,376.94,68.8,377.24,68.11,376.62Z"
       transform="translate(-29.03 -32.63)"
       id="path1269" />
    <path
       class="cls-24"
       d="M67.05,449.73a8.46,8.46,0,0,1-7.55-8,23.76,23.76,0,0,1-.07-2.39q0-16.86,0-33.71a16.35,16.35,0,0,1,.49-5.22c.83-2.53,2-4.78,5-5.3.51-.09.92-.83,1.64-.74a1.88,1.88,0,0,1,1.37-.26,29.13,29.13,0,0,0,4.07.12h459.2a27.64,27.64,0,0,0,4.07-.13,2.07,2.07,0,0,1,1.38.24c4.58.79,7.16,4,7.06,8.74a2.93,2.93,0,0,0-.2,1.63q0,17.57,0,35.12a3,3,0,0,0,.2,1.63c-.05,4.33-2.66,7.35-7.08,8.22-1.28.73-2.67.41-4,.41q-156.78,0-313.57,0H70.81C69.55,450.15,68.24,450.44,67.05,449.73Z"
       transform="translate(-29.03 -32.63)"
       id="path1281" />
    <path
       class="cls-30"
       d="M66.67,394.08a1.1,1.1,0,0,1,1-.55h2.16q231.78,0,463.55,0c1,0,2.25-.47,3.18.5a10.11,10.11,0,0,1-3.54.44H70.22A12.1,12.1,0,0,1,66.67,394.08Z"
       transform="translate(-29.03 -32.63)"
       id="path1283" />
    <path
       class="cls-31"
       d="M66.67,394.08c1.2,0,2.39-.08,3.59-.08H533c1.2,0,2.4,0,3.6,0,0,.12.08.23.11.35l-1.1.18a8.54,8.54,0,0,1-2.62.14H70.26a8.54,8.54,0,0,1-2.62-.14l-1.07-.15A1.91,1.91,0,0,0,66.67,394.08Z"
       transform="translate(-29.03 -32.63)"
       id="path1285" />
    <path
       class="cls-32"
       d="M536.53,450.08a1.08,1.08,0,0,1-1,.55h-2.16q-231.54,0-463.09,0c-1,0-2.25.53-3.13-.55a9.22,9.22,0,0,1,2.62-.13H533.91A8.25,8.25,0,0,1,536.53,450.08Z"
       transform="translate(-29.03 -32.63)"
       id="path1287" />
    <path
       class="cls-33"
       d="M536.53,450.08c-1.12,0-2.24.08-3.36.08H70.75c-1.2,0-2.4-.07-3.59-.1a.76.76,0,0,0-.11-.33c1.12,0,2.24-.05,3.35-.05H533.52c1,0,2.08,0,3.12.05A.85.85,0,0,0,536.53,450.08Z"
       transform="translate(-29.03 -32.63)"
       id="path1289" />
    <path
       class="cls-34"
       d="M543.72,441.51c-.69-.64-.43-1.49-.43-2.25q0-16.93,0-33.88c0-.76-.26-1.61.43-2.25,0,.63.11,1.26.11,1.9q0,17.3,0,34.59C543.83,440.25,543.76,440.88,543.72,441.51Z"
       transform="translate(-29.03 -32.63)"
       id="path1291" />
    <path
       class="cls-35"
       d="M538,633.53A12.41,12.41,0,0,1,528.81,645l-1.83.51a4.78,4.78,0,0,1-2.59.24h-447a4.78,4.78,0,0,1-2.59-.24L73,645a12.42,12.42,0,0,1-9.22-11.46c.37-.4.27-.9.27-1.37q0-14,0-28c0-.47.1-1-.28-1.36a12.53,12.53,0,0,1,11.82-11.93c.8-.05,1.6,0,2.4,0q222.95,0,445.88,0c3.83,0,7.32.7,10.18,3.38a11.09,11.09,0,0,1,4,8.14C537.61,612.72,537.55,623.13,538,633.53Z"
       transform="translate(-29.03 -32.63)"
       id="path1293" />
    <path
       class="cls-35"
       d="M63.76,543.28a12.49,12.49,0,0,1,11.72-11.5c.72,0,1.44,0,2.16,0q223.25,0,446.48,0c3.85,0,7.3.84,10.1,3.55a11,11,0,0,1,3.78,8c-.4,10.4-.45,20.8,0,31.21-.2,6.45-5.59,11.6-12.41,11.86-.64,0-1.28,0-1.92,0H78.06a17.42,17.42,0,0,1-6.13-.83,12.3,12.3,0,0,1-8.19-11,1.84,1.84,0,0,0,.26-1.37q0-14.24,0-28.46A2.08,2.08,0,0,0,63.76,543.28Z"
       transform="translate(-29.03 -32.63)"
       id="path1295" />
    <path
       class="cls-36"
       d="M526,473.24c6.32-.31,12.22,6,12,11.48a2.38,2.38,0,0,0-.25,1.61q0,14,0,28c0,.55-.14,1.13.26,1.61a12.34,12.34,0,0,1-10.59,11.54,27,27,0,0,1-3.12.12q-223.42,0-446.86,0c-5,0-9.06-1.61-11.86-5.86a9.36,9.36,0,0,1-1.85-5.83,1.89,1.89,0,0,0,.26-1.37q0-14.23,0-28.47a1.94,1.94,0,0,0-.25-1.37c-.14-5.72,6-11.82,12-11.48a5.87,5.87,0,0,0,2.6.2h445A5.87,5.87,0,0,0,526,473.24Z"
       transform="translate(-29.03 -32.63)"
       id="path1297" />
    <path
       class="cls-37"
       d="M76.76,765.9c-.68-.52-1.53-.38-2.29-.63a12.55,12.55,0,0,1-8.87-11.85c-.08-9.92-.11-19.84,0-29.75a12.54,12.54,0,0,1,12.67-12.38H80q223.25,0,446.49,0c4.75,0,8.57,1.57,11.41,5.39a12.63,12.63,0,0,1,2.41,7.65c0,9.52.1,19,0,28.55-.09,6.72-4.18,11.42-10.75,12.79a3.07,3.07,0,0,0-.64.29c-.72.56-1.55.29-2.32.29H79.05C78.29,766.22,77.45,766.52,76.76,765.9Z"
       transform="translate(-29.03 -32.63)"
       id="path1299" />
    <path
       class="cls-37"
       d="M63.73,663.27a12.53,12.53,0,0,1,11.78-11.95c.56,0,1.12,0,1.68,0q223.7,0,447.39,0c4.26,0,7.84,1.32,10.6,4.57A10.38,10.38,0,0,1,538,662.8a1.54,1.54,0,0,0-.24.67q0,14.94,0,29.89a1.41,1.41,0,0,0,.27.65,12.39,12.39,0,0,1-9.46,11.49A4.18,4.18,0,0,0,527,706a3.92,3.92,0,0,1-2.34.25H77.12a3.92,3.92,0,0,1-2.34-.25c-1-.3-2-.56-2.94-.91a12.25,12.25,0,0,1-8.11-11c.37-.4.27-.9.27-1.37q0-14,0-28C64,664.16,64.1,663.67,63.73,663.27Z"
       transform="translate(-29.03 -32.63)"
       id="path1301" />
    <path
       class="cls-38"
       d="M76.76,765.9c2.15,0,4.31,0,6.47,0H502l26.88,0a1.06,1.06,0,0,1-1,.54H525.7q-222.9,0-445.82,0C78.85,766.45,77.63,767,76.76,765.9Z"
       transform="translate(-29.03 -32.63)"
       id="path1303" />
    <path
       class="cls-39"
       d="M74.78,706H527a1.12,1.12,0,0,1-1,.51H523.8q-222.91,0-445.84,0C76.9,706.45,75.71,707,74.78,706Z"
       transform="translate(-29.03 -32.63)"
       id="path1305" />
    <path
       class="cls-40"
       d="M74.78,645.5c1.12,0,2.24,0,3.36,0H525.78c.4,0,.8,0,1.2,0a1.16,1.16,0,0,1-1,.49h-2.16Q300.88,646,78,646C76.91,646,75.72,646.45,74.78,645.5Z"
       transform="translate(-29.03 -32.63)"
       id="path1307" />
    <path
       class="cls-41"
       d="M526,473.24a1.34,1.34,0,0,1-1.06.44h-2.16q-221.89,0-443.78,0c-1.07,0-2.24.42-3.22-.42.87,0,1.75-.12,2.62-.12h445C524.24,473.12,525.12,473.2,526,473.24Z"
       transform="translate(-29.03 -32.63)"
       id="path1309" />
    <path
       class="cls-42"
       d="M538,694c-.7-.52-.5-1.29-.5-2q0-13.62,0-27.23c0-.69-.2-1.45.47-2a15.38,15.38,0,0,1,.17,1.65q0,14.07,0,28.14A13.38,13.38,0,0,1,538,694Z"
       transform="translate(-29.03 -32.63)"
       id="path1311" />
    <path
       class="cls-42"
       d="M538,574.49c-.7-.53-.5-1.3-.5-2q0-13.61,0-27.22c0-.7-.2-1.46.47-2a15.38,15.38,0,0,1,.17,1.65q0,14.07,0,28.14A13.65,13.65,0,0,1,538,574.49Z"
       transform="translate(-29.03 -32.63)"
       id="path1313" />
    <path
       class="cls-42"
       d="M538,515.92c-.69-.53-.49-1.29-.49-2q0-13.62,0-27.23c0-.69-.2-1.46.48-2,0,.55.16,1.1.16,1.65q0,14,0,27.9C538.17,514.82,538.07,515.37,538,515.92Z"
       transform="translate(-29.03 -32.63)"
       id="path1315" />
    <path
       class="cls-42"
       d="M538,633.53c-.7-.52-.5-1.29-.5-2q0-13.62,0-27.23c0-.69-.2-1.46.47-2a15.38,15.38,0,0,1,.17,1.65q0,14.07,0,28.14A13.38,13.38,0,0,1,538,633.53Z"
       transform="translate(-29.03 -32.63)"
       id="path1319" />
    <path
       class="cls-19"
       d="M74.81,642.12a9.3,9.3,0,0,1-8.16-8.91q-.15-15.11,0-30.23a9.54,9.54,0,0,1,7.77-8.87,18.68,18.68,0,0,1,3.58-.3H523.76a14.55,14.55,0,0,1,4.74.58,9.64,9.64,0,0,1,6.64,9.07c0,9.83.06,19.67,0,29.51a9.35,9.35,0,0,1-8.18,9.14,5.91,5.91,0,0,0-2.61-.2H77.41A5.87,5.87,0,0,0,74.81,642.12Z"
       transform="translate(-29.03 -32.63)"
       id="path1399" />
    <path
       class="cls-65"
       d="M74.81,642.12a1.37,1.37,0,0,1,1.07-.44H78q222.84,0,445.68,0c1.07,0,2.24-.41,3.23.42a8.88,8.88,0,0,1-2.86.21H77.67A9.15,9.15,0,0,1,74.81,642.12Z"
       transform="translate(-29.03 -32.63)"
       id="path1401" />
    <path
       class="cls-19"
       d="M300.92,583.23H78a13.6,13.6,0,0,1-4.74-.47,9.64,9.64,0,0,1-6.65-9c0-9.76-.06-19.52,0-29.28,0-5.32,4.15-9.39,9.62-9.71.64,0,1.28,0,1.92,0H523.51a17.24,17.24,0,0,1,4,.34,9.6,9.6,0,0,1,7.56,9.06q.12,14.88,0,29.76a9.57,9.57,0,0,1-9.38,9.35c-.8,0-1.6,0-2.4,0Z"
       transform="translate(-29.03 -32.63)"
       id="path1403" />
    <path
       class="cls-19"
       d="M75.3,524.48c-5.36-.35-8.74-5.48-8.71-9.5.06-9.75,0-19.51,0-29.27a9.74,9.74,0,0,1,9.43-9.61c.8,0,1.6,0,2.4,0H523.31a15.56,15.56,0,0,1,4.75.42,9.67,9.67,0,0,1,7.08,9.22q.08,14.63,0,29.27c0,5-3.57,8.81-8.68,9.49a7.45,7.45,0,0,0-2.62-.16q-223,0-445.93,0A7.4,7.4,0,0,0,75.3,524.48Z"
       transform="translate(-29.03 -32.63)"
       id="path1405" />
    <path
       class="cls-66"
       d="M75.3,524.48c.83-.72,1.84-.38,2.76-.38q37.2,0,74.4,0,185.49,0,371,0c1,0,2.09-.37,3,.38-.88,0-1.75.1-2.63.1H77.93C77.05,524.58,76.17,524.51,75.3,524.48Z"
       transform="translate(-29.03 -32.63)"
       id="path1407" />
    <path
       class="cls-19"
       d="M529.41,714.61a9.26,9.26,0,0,1,7.61,9.16,4.44,4.44,0,0,0-.22,2.34q0,12.52,0,25.06a4.55,4.55,0,0,0,.22,2.34,9.24,9.24,0,0,1-8.15,9.08,57.33,57.33,0,0,1-7.64.25H83.89a53.51,53.51,0,0,1-7.16-.27,9.54,9.54,0,0,1-8.15-9.45c-.07-5,0-10,0-15.08,0-4.62,0-9.25,0-13.88a9.65,9.65,0,0,1,8-9.61,2.09,2.09,0,0,1,.93-.18c1.59.11,3.19.07,4.79.07q222.72,0,445.44,0l.72,0A2.73,2.73,0,0,1,529.41,714.61Z"
       transform="translate(-29.03 -32.63)"
       id="path1409" />
    <path
       class="cls-67"
       d="M529.41,714.61l-.58.14a10.1,10.1,0,0,1-2.63.12H79.86a8,8,0,0,1-2.62-.15l-.65-.17.13-.37a4.78,4.78,0,0,1,2.59-.24q223.49,0,447,0a5.48,5.48,0,0,1,2.6.21Z"
       transform="translate(-29.03 -32.63)"
       id="path1411" />
    <path
       class="cls-65"
       d="M76.73,762.57a1.44,1.44,0,0,1,1.09-.41H80q222.83,0,445.65,0c1.08,0,2.24-.4,3.24.41a1,1,0,0,1-.42.13,10.46,10.46,0,0,1-4.27.39H80.94a8.66,8.66,0,0,1-3.78-.4A1,1,0,0,1,76.73,762.57Z"
       transform="translate(-29.03 -32.63)"
       id="path1413" />
    <path
       class="cls-68"
       d="M528.88,714.15H80.8l-4.08,0a1.17,1.17,0,0,1,1-.5h1.92q223.13,0,446.25,0C526.9,713.7,528,713.27,528.88,714.15Z"
       transform="translate(-29.03 -32.63)"
       id="path1415" />
    <path
       class="cls-69"
       d="M77.16,762.71c1,0,2.07-.07,3.11-.07h446c.71,0,1.43.05,2.15.08l-.54.43a5.88,5.88,0,0,1-2.6.19h-445a5.47,5.47,0,0,1-2.6-.21Z"
       transform="translate(-29.03 -32.63)"
       id="path1417" />
    <path
       class="cls-70"
       d="M77.68,763.13H525.27l2.64,0a1.25,1.25,0,0,1-1,.45H524.7q-221.91,0-443.81,0C79.82,763.58,78.64,764,77.68,763.13Z"
       transform="translate(-29.03 -32.63)"
       id="path1419" />
    <path
       class="cls-71"
       d="M537,753.51c-.65-.55-.45-1.31-.45-2q0-12.87,0-25.74c0-.69-.2-1.45.45-2,0,2.45.11,4.91.11,7.37q0,9.89,0,19.77C537.13,751.78,537.06,752.65,537,753.51Z"
       transform="translate(-29.03 -32.63)"
       id="path1421" />
    <path
       class="cls-19"
       d="M527.07,654.55a9.6,9.6,0,0,1,8.08,9.77c0,9.56-.06,19.13,0,28.69.05,4.77-4,9.39-8.23,9.59a66.59,66.59,0,0,1-8.11.24H82.92a66.59,66.59,0,0,1-8.11-.24c-4.12-.18-8.29-4.71-8.23-9.59.1-7.57,0-15.14,0-22.71,0-2,0-4,0-6a9.62,9.62,0,0,1,8.08-9.77,2.14,2.14,0,0,1,.93-.18c1.44.1,2.88.07,4.32.07H521.82c1.44,0,2.88,0,4.32-.07A2.14,2.14,0,0,1,527.07,654.55Z"
       transform="translate(-29.03 -32.63)"
       id="path1423" />
    <path
       class="cls-72"
       d="M74.8,654.18a1.23,1.23,0,0,1,1-.49H78q222.89,0,445.76,0c1.06,0,2.25-.45,3.2.47-1.35.74-2.83.46-4.25.46H78.33A6.67,6.67,0,0,1,74.8,654.18Z"
       transform="translate(-29.03 -32.63)"
       id="path1425" />
    <path
       class="cls-73"
       d="M74.8,654.18l3.84,0H527l.11.38-.63.18a8.54,8.54,0,0,1-2.62.14H77.94a8.54,8.54,0,0,1-2.62-.14l-.63-.18C74.73,654.42,74.76,654.3,74.8,654.18Z"
       transform="translate(-29.03 -32.63)"
       id="path1427" />
    <path
       class="cls-65"
       d="M74.81,702.6a1.34,1.34,0,0,1,1.07-.44H78q222.84,0,445.68,0c1.07,0,2.24-.41,3.23.42a.72.72,0,0,1-.4.12,8.1,8.1,0,0,1-3.31.4H78.52a8.1,8.1,0,0,1-3.31-.4A.72.72,0,0,1,74.81,702.6Z"
       transform="translate(-29.03 -32.63)"
       id="path1429" />
    <path
       class="cls-74"
       d="M75.21,702.72c1,0,2.08-.08,3.11-.08H524.88c.55,0,1.11.05,1.67.08l-.56.43a5.88,5.88,0,0,1-2.6.19h-445a5.88,5.88,0,0,1-2.6-.19C75.59,703,75.4,702.86,75.21,702.72Z"
       transform="translate(-29.03 -32.63)"
       id="path1431" />
    <path
       class="cls-75"
       d="M75.77,703.15l2.88,0H523.59l2.4,0a1.26,1.26,0,0,1-1.06.45H523q-222.13,0-444.27,0C77.75,703.58,76.66,704,75.77,703.15Z"
       transform="translate(-29.03 -32.63)"
       id="path1433" />
    <path
       class="cls-263"
       d="M77.24,714.72c1,0,1.92-.08,2.88-.08H525.71c1,0,2.08.07,3.12.11-.86.68-1.86.35-2.78.35q-77.74,0-155.48,0-145.17,0-290.32,0C79.24,715.1,78.16,715.46,77.24,714.72Z"
       transform="translate(-29.03 -32.63)"
       id="path2003" />
    <path
       class="cls-269"
       d="M75.32,654.73c1,0,1.92-.09,2.87-.09H523.57c1,0,1.91.06,2.87.09-.84.71-1.84.37-2.77.37q-35.26,0-70.54,0-187.41,0-374.8,0C77.32,655.1,76.24,655.46,75.32,654.73Z"
       transform="translate(-29.03 -32.63)"
       id="path2035" />
    <g
       aria-label="MISSING IMAGE"
       id="text5980"
       style="font-size:32px;line-height:125%;font-family:Sans;-inkscape-font-specification:Sans;letter-spacing:0px;word-spacing:0px;fill:url(#linearGradient17005);stroke-width:1px">
      <path
         d="m 97.771675,400.61295 -7.53125,-20.03125 h -0.125 q 0.234375,2.5 0.234375,6.17187 v 13.85938 H 87.69355 V 377.7692 h 4.25 l 7.046875,18.71875 h 0.125 L 106.2873,377.7692 h 4.21875 v 22.84375 h -2.84375 v -14.04688 q 0,-2.34375 0.21875,-5.95312 h -0.125 l -7.625,20 z"
         style="fill:#d40000"
         id="path33261" />
      <path
         d="m 123.14668,400.61295 h -8.25 v -1.65625 l 2.6875,-0.60938 v -18.28125 l -2.6875,-0.64062 v -1.65625 h 8.25 v 1.65625 l -2.6875,0.64062 v 18.28125 l 2.6875,0.60938 z"
         style="fill:#d40000"
         id="path33263" />
      <path
         d="m 140.52168,394.50357 q 0,2.98438 -2.15625,4.70313 -2.15625,1.71875 -6,1.71875 -4.0625,0 -6.28125,-1.07813 v -2.75 q 1.45312,0.625 3.17187,0.98438 1.73438,0.35937 3.23438,0.35937 2.5625,0 3.85937,-0.98437 1.29688,-0.98438 1.29688,-2.70313 0,-1.14062 -0.46875,-1.875 -0.46875,-0.73437 -1.57813,-1.375 -1.09375,-0.64062 -3.32812,-1.45312 -3.17188,-1.15625 -4.53125,-2.71875 -1.35938,-1.57813 -1.35938,-4.0625 0,-2.67188 2,-4.25 2.01563,-1.57813 5.29688,-1.57813 3.42187,0 6.29687,1.28125 l -0.89062,2.46875 q -2.9375,-1.21875 -5.46875,-1.21875 -2.03125,0 -3.1875,0.875 -1.14063,0.875 -1.14063,2.45313 0,1.125 0.4375,1.875 0.45313,0.73437 1.4375,1.34375 1,0.60937 3.125,1.39062 2.54688,0.9375 3.79688,1.82813 1.25,0.875 1.84375,2.03125 0.59375,1.14062 0.59375,2.73437 z"
         style="fill:#d40000"
         id="path33265" />
      <path
         d="m 158.08418,394.50357 q 0,2.98438 -2.15625,4.70313 -2.15625,1.71875 -6,1.71875 -4.0625,0 -6.28125,-1.07813 v -2.75 q 1.45312,0.625 3.17187,0.98438 1.73438,0.35937 3.23438,0.35937 2.5625,0 3.85937,-0.98437 1.29688,-0.98438 1.29688,-2.70313 0,-1.14062 -0.46875,-1.875 -0.46875,-0.73437 -1.57813,-1.375 -1.09375,-0.64062 -3.32812,-1.45312 -3.17188,-1.15625 -4.53125,-2.71875 -1.35938,-1.57813 -1.35938,-4.0625 0,-2.67188 2,-4.25 2.01563,-1.57813 5.29688,-1.57813 3.42187,0 6.29687,1.28125 l -0.89062,2.46875 q -2.9375,-1.21875 -5.46875,-1.21875 -2.03125,0 -3.1875,0.875 -1.14063,0.875 -1.14063,2.45313 0,1.125 0.4375,1.875 0.45313,0.73437 1.4375,1.34375 1,0.60937 3.125,1.39062 2.54688,0.9375 3.79688,1.82813 1.25,0.875 1.84375,2.03125 0.59375,1.14062 0.59375,2.73437 z"
         style="fill:#d40000"
         id="path33267" />
      <path
         d="m 169.11543,400.61295 h -8.25 v -1.65625 l 2.6875,-0.60938 v -18.28125 l -2.6875,-0.64062 v -1.65625 h 8.25 v 1.65625 l -2.6875,0.64062 v 18.28125 l 2.6875,0.60938 z"
         style="fill:#d40000"
         id="path33269" />
      <path
         d="M 191.64668,400.61295 H 188.2873 L 176.05293,381.6442 h -0.125 l 0.0781,1.26562 q 0.1875,2.84375 0.1875,4.9375 v 12.76563 H 173.5373 V 377.7692 h 3.32813 l 0.70312,1.10937 7.5,11.59375 3.98438,6.20313 h 0.125 q -0.0312,-0.375 -0.125,-2.67188 -0.0937,-2.3125 -0.0937,-3.34375 V 377.7692 h 2.6875 z"
         style="fill:#d40000"
         id="path33271" />
      <path
         d="m 207.77168,388.55045 h 7.89062 v 11.20312 q -1.8125,0.57813 -3.6875,0.875 -1.875,0.29688 -4.34375,0.29688 -5.21875,0 -8.07812,-3.09375 -2.85938,-3.09375 -2.85938,-8.64063 0,-3.57812 1.42188,-6.25 1.42187,-2.67187 4.09375,-4.07812 2.6875,-1.42188 6.32812,-1.42188 3.65625,0 6.8125,1.34375 l -1.09375,2.5 q -3.01562,-1.3125 -5.89062,-1.3125 -4.07813,0 -6.375,2.46875 -2.29688,2.46875 -2.29688,6.75 0,4.53125 2.20313,6.89063 2.20312,2.35937 6.40625,2.35937 2.29687,0 4.48437,-0.54687 v -6.78125 h -5.01562 z"
         style="fill:#d40000"
         id="path33273" />
      <path
         d="m 235.88105,400.61295 h -8.25 v -1.65625 l 2.6875,-0.60938 v -18.28125 l -2.6875,-0.64062 v -1.65625 h 8.25 v 1.65625 l -2.6875,0.64062 v 18.28125 l 2.6875,0.60938 z"
         style="fill:#d40000"
         id="path33275" />
      <path
         d="M 250.38105,400.61295 242.8498,380.5817 h -0.125 q 0.23438,2.5 0.23438,6.17187 v 13.85938 h -2.65625 V 377.7692 h 4.25 l 7.04687,18.71875 h 0.125 l 7.17188,-18.71875 h 4.21875 v 22.84375 h -2.84375 v -14.04688 q 0,-2.34375 0.21875,-5.95312 h -0.125 l -7.625,20 z"
         style="fill:#d40000"
         id="path33277" />
      <path
         d="m 283.6623,400.61295 -2.75,-7.07813 h -9.0625 l -2.71875,7.07813 h -2.90625 l 8.92188,-22.9375 h 2.59375 l 8.90625,22.9375 z m -3.60937,-9.625 -2.5625,-6.92188 -1.09375,-3.42187 q -0.46875,1.875 -0.98438,3.42187 l -2.59375,6.92188 z"
         style="fill:#d40000"
         id="path33279" />
      <path
         d="m 299.39668,388.55045 h 7.89062 v 11.20312 q -1.8125,0.57813 -3.6875,0.875 -1.875,0.29688 -4.34375,0.29688 -5.21875,0 -8.07812,-3.09375 -2.85938,-3.09375 -2.85938,-8.64063 0,-3.57812 1.42188,-6.25 1.42187,-2.67187 4.09375,-4.07812 2.6875,-1.42188 6.32812,-1.42188 3.65625,0 6.8125,1.34375 l -1.09375,2.5 q -3.01562,-1.3125 -5.89062,-1.3125 -4.07813,0 -6.375,2.46875 -2.29688,2.46875 -2.29688,6.75 0,4.53125 2.20313,6.89063 2.20312,2.35937 6.40625,2.35937 2.29687,0 4.48437,-0.54687 v -6.78125 h -5.01562 z"
         style="fill:#d40000"
         id="path33281" />
      <path
         d="M 325.5373,400.61295 H 312.77168 V 377.7692 h 12.76562 v 2.53125 h -9.89062 v 7.125 h 9.3125 v 2.5 h -9.3125 v 8.15625 h 9.89062 z"
         style="fill:#d40000"
         id="path33283" />
    </g>
    <g
       aria-label="MISSING IMAGE"
       id="text22391"
       style="font-size:74.6667px;line-height:99.4%;font-family:Sans;-inkscape-font-specification:Sans;letter-spacing:0px;word-spacing:0px;stroke-width:1px">
      <path
         d="M 157.47607,179.39281 139.90314,132.6532 h -0.29167 q 0.54688,5.83334 0.54688,14.40105 v 32.33856 h -6.19792 V 126.0907 h 9.91667 l 16.44272,43.6771 h 0.29166 l 16.73439,-43.6771 h 9.84375 v 53.30211 h -6.63542 v -32.77606 q 0,-5.46875 0.51042,-13.89063 h -0.29167 l -17.79167,46.66669 z"
         style="text-align:center;text-anchor:middle;fill:#ff0000"
         id="path33218" />
      <path
         d="m 216.68443,179.39281 h -19.25001 v -3.86459 l 6.27083,-1.42187 v -42.65627 l -6.27083,-1.4948 v -3.86458 h 19.25001 v 3.86458 l -6.27084,1.4948 v 42.65627 l 6.27084,1.42187 z"
         style="text-align:center;text-anchor:middle;fill:#ff0000"
         id="path33220" />
      <path
         d="m 257.22611,165.13759 q 0,6.96355 -5.03125,10.97397 -5.03125,4.01041 -14.00001,4.01041 -9.47917,0 -14.65625,-2.51562 v -6.41667 q 3.39062,1.45833 7.40104,2.29687 4.04688,0.83855 7.54688,0.83855 5.97917,0 9.00521,-2.29688 3.02605,-2.29688 3.02605,-6.30729 0,-2.66146 -1.09376,-4.37501 -1.09375,-1.71354 -3.68229,-3.20833 -2.55208,-1.49479 -7.76563,-3.39063 -7.40104,-2.69792 -10.57292,-6.34375 -3.17188,-3.68229 -3.17188,-9.47917 0,-6.23438 4.66667,-9.91667 4.70313,-3.6823 12.35938,-3.6823 7.98438,0 14.69272,2.98959 l -2.07813,5.76042 q -6.85417,-2.84375 -12.76042,-2.84375 -4.73958,0 -7.4375,2.04166 -2.66146,2.04167 -2.66146,5.72396 0,2.62501 1.02083,4.37501 1.05729,1.71354 3.35417,3.13541 2.33333,1.42188 7.29167,3.2448 5.94271,2.1875 8.85938,4.26562 2.91667,2.04167 4.30208,4.73959 1.38542,2.66146 1.38542,6.38021 z"
         style="text-align:center;text-anchor:middle;fill:#ff0000"
         id="path33222" />
      <path
         d="m 298.20531,165.13759 q 0,6.96355 -5.03126,10.97397 -5.03125,4.01041 -14,4.01041 -9.47917,0 -14.65626,-2.51562 v -6.41667 q 3.39063,1.45833 7.40105,2.29687 4.04687,0.83855 7.54687,0.83855 5.97917,0 9.00522,-2.29688 3.02604,-2.29688 3.02604,-6.30729 0,-2.66146 -1.09375,-4.37501 -1.09375,-1.71354 -3.68229,-3.20833 -2.55209,-1.49479 -7.76563,-3.39063 -7.40105,-2.69792 -10.57292,-6.34375 -3.17188,-3.68229 -3.17188,-9.47917 0,-6.23438 4.66667,-9.91667 4.70313,-3.6823 12.35938,-3.6823 7.98438,0 14.69271,2.98959 l -2.07812,5.76042 q -6.85417,-2.84375 -12.76042,-2.84375 -4.73959,0 -7.43751,2.04166 -2.66146,2.04167 -2.66146,5.72396 0,2.62501 1.02084,4.37501 1.05729,1.71354 3.35416,3.13541 2.33334,1.42188 7.29167,3.2448 5.94272,2.1875 8.85938,4.26562 2.91667,2.04167 4.30209,4.73959 1.38542,2.66146 1.38542,6.38021 z"
         style="text-align:center;text-anchor:middle;fill:#ff0000"
         id="path33224" />
      <path
         d="m 323.9449,179.39281 h -19.25001 v -3.86459 l 6.27084,-1.42187 v -42.65627 l -6.27084,-1.4948 v -3.86458 h 19.25001 v 3.86458 l -6.27083,1.4948 v 42.65627 l 6.27083,1.42187 z"
         style="text-align:center;text-anchor:middle;fill:#ff0000"
         id="path33226" />
      <path
         d="m 376.51784,179.39281 h -7.83854 l -28.54689,-44.26044 h -0.29167 l 0.18229,2.95313 q 0.4375,6.63542 0.4375,11.52083 v 29.78648 h -6.19792 V 126.0907 h 7.76563 l 1.64063,2.58854 17.50001,27.0521 9.29688,14.47396 h 0.29166 q -0.0729,-0.875 -0.29166,-6.23438 -0.21875,-5.39583 -0.21875,-7.80208 V 126.0907 h 6.27083 z"
         style="text-align:center;text-anchor:middle;fill:#ff0000"
         id="path33228" />
      <path
         d="m 414.14285,151.24696 h 18.41147 v 26.14064 q -4.22917,1.34896 -8.60417,2.04167 -4.375,0.6927 -10.13542,0.6927 -12.17709,0 -18.84897,-7.21875 -6.67188,-7.21875 -6.67188,-20.16147 0,-8.34896 3.31771,-14.58334 3.31771,-6.23438 9.55209,-9.51563 6.27084,-3.31771 14.76563,-3.31771 8.53126,0 15.89584,3.13542 l -2.55208,5.83334 q -7.03646,-3.0625 -13.7448,-3.0625 -9.51563,0 -14.87501,5.76042 -5.35937,5.76041 -5.35937,15.75 0,10.57292 5.14062,16.07814 5.14063,5.50521 14.94793,5.50521 5.35938,0 10.46354,-1.27605 v -15.82292 h -11.70313 z"
         style="text-align:center;text-anchor:middle;fill:#ff0000"
         id="path33230" />
      <path
         d="m 186.6792,253.61151 h -19.25 v -3.86458 l 6.27083,-1.42188 v -42.65627 l -6.27083,-1.49479 v -3.86459 h 19.25 v 3.86459 l -6.27083,1.49479 v 42.65627 l 6.27083,1.42188 z"
         style="text-align:center;text-anchor:middle;fill:#ff0000"
         id="path33232" />
      <path
         d="M 220.51255,253.61151 202.93963,206.8719 h -0.29167 q 0.54688,5.83334 0.54688,14.40105 v 32.33856 h -6.19792 V 200.3094 h 9.91667 l 16.44272,43.67711 h 0.29166 l 16.73439,-43.67711 h 9.84375 v 53.30211 h -6.63542 v -32.77606 q 0,-5.46875 0.51042,-13.89063 h -0.29167 l -17.79168,46.66669 z"
         style="text-align:center;text-anchor:middle;fill:#ff0000"
         id="path33234" />
      <path
         d="m 298.16884,253.61151 -6.41667,-16.51563 h -21.14584 l -6.34376,16.51563 h -6.78125 l 20.81772,-53.52086 h 6.05208 l 20.78126,53.52086 z m -8.42188,-22.45834 -5.97917,-16.15105 -2.55208,-7.98438 q -1.09375,4.375 -2.29688,7.98438 l -6.05209,16.15105 z"
         style="text-align:center;text-anchor:middle;fill:#ff0000"
         id="path33236" />
      <path
         d="m 334.8824,225.46566 h 18.41147 v 26.14064 q -4.22917,1.34896 -8.60417,2.04167 -4.375,0.69271 -10.13542,0.69271 -12.17709,0 -18.84897,-7.21876 -6.67188,-7.21875 -6.67188,-20.16146 0,-8.34897 3.31771,-14.58334 3.31771,-6.23438 9.55209,-9.51563 6.27084,-3.31771 14.76563,-3.31771 8.53126,0 15.89584,3.13541 l -2.55208,5.83334 q -7.03646,-3.0625 -13.7448,-3.0625 -9.51563,0 -14.87501,5.76042 -5.35937,5.76042 -5.35937,15.75001 0,10.57292 5.14062,16.07813 5.14063,5.50521 14.94793,5.50521 5.35938,0 10.46355,-1.27604 V 231.44483 H 334.8824 Z"
         style="text-align:center;text-anchor:middle;fill:#ff0000"
         id="path33238" />
      <path
         d="M 395.87723,253.61151 H 366.09076 V 200.3094 h 29.78647 v 5.90625 h -23.07814 v 16.62501 h 21.72918 v 5.83334 h -21.72918 v 19.03126 h 23.07814 z"
         style="text-align:center;text-anchor:middle;fill:#ff0000"
         id="path33240" />
    </g>
  </g>
  <metadata
     id="metadata2736">
    <rdf:RDF>
      <cc:Work
         rdf:about="">
        <dc:title>kondom svg freigestellt</dc:title>
      </cc:Work>
    </rdf:RDF>
  </metadata>
</svg>
